<?xml version="1.0" standalone="no"?>
<!DOCTYPE svg PUBLIC "-//W3C//DTD SVG 1.1//EN" "http://www.w3.org/Graphics/SVG/1.1/DTD/svg11.dtd" >
<svg>
<metadata>
Created by FontForge 20120731 at Wed Oct  5 09:24:36 2016
 By Apache
Copyright (c) 1989 Adobe Systems Incorporated. All Rights Reserved.
</metadata>
<defs>
<font id="VAG-Rounded-Bold" horiz-adv-x="1176" >
  <font-face 
    font-family="VAG Rounded"
    font-weight="700"
    font-stretch="normal"
    units-per-em="2048"
    panose-1="2 11 5 0 0 0 0 0 0 0"
    ascent="1638"
    descent="-410"
    x-height="1090"
    cap-height="1470"
    bbox="-309 -446 2171 1923"
    underline-thickness="50"
    underline-position="-75"
    unicode-range="U+0020-F002"
  />
<missing-glyph horiz-adv-x="1536" 
d="M256 0v1280h1024v-1280h-1024zM1247 33v1214h-958v-1214h958z" />
    <glyph glyph-name=".notdef" horiz-adv-x="1536" 
d="M256 0v1280h1024v-1280h-1024zM1247 33v1214h-958v-1214h958z" />
    <glyph glyph-name=".null" horiz-adv-x="0" 
 />
    <glyph glyph-name="nonmarkingreturn" horiz-adv-x="0" 
 />
    <glyph glyph-name="A" unicode="A" horiz-adv-x="1290" 
d="M18 199l412 1114q29 77 86.5 123.5t132.5 46.5q79 0 135.5 -46t83.5 -124l402 -1114q16 -44 16 -76q0 -39 -19.5 -70t-51.5 -48t-70 -17q-114 0 -150 106l-61 193h-569l-62 -191q-34 -108 -147 -108q-63 0 -107.5 41.5t-44.5 101.5q0 29 14 68zM647 1163l-194 -594h389
l-191 594h-4z" />
    <glyph glyph-name="AE" unicode="&#xc6;" horiz-adv-x="1706" 
d="M20 215l635 1174q19 32 49 50.5t95 18.5h719q70 0 107.5 -41.5t37.5 -99.5q0 -38 -17 -69.5t-49.5 -51.5t-78.5 -20h-361v-299h336q71 0 110 -41t39 -101q0 -56 -40 -98.5t-109 -42.5h-336v-311h379q70 0 107.5 -41.5t37.5 -100.5q0 -36 -17 -68.5t-49.5 -52.5t-78.5 -20
h-528q-68 0 -113 42.5t-45 111.5v102h-469l-96 -168q-58 -100 -146 -100q-61 0 -104 35.5t-43 93.5q0 44 28 98zM846 1126l-324 -594h328v594h-4z" />
    <glyph glyph-name="Aacute" unicode="&#xc1;" horiz-adv-x="1290" 
d="M18 199l412 1114q29 77 86.5 123.5t132.5 46.5q79 0 135.5 -46t83.5 -124l402 -1114q16 -44 16 -76q0 -39 -19.5 -70t-51.5 -48t-70 -17q-114 0 -150 106l-61 193h-569l-62 -191q-34 -108 -147 -108q-63 0 -107.5 41.5t-44.5 101.5q0 29 14 68zM647 1163l-194 -594h389
l-191 594h-4zM467 1796l242 99q52 20 78 20q44 0 77 -41.5t33 -85.5q0 -91 -84 -121l-229 -90l-37.5 -13.5t-18 -5.5t-26.5 -1q-44 0 -76.5 46.5t-32.5 102.5q0 52 58 82z" />
    <glyph glyph-name="Acircumflex" unicode="&#xc2;" horiz-adv-x="1290" 
d="M18 199l412 1114q29 77 86.5 123.5t132.5 46.5q79 0 135.5 -46t83.5 -124l402 -1114q16 -44 16 -76q0 -39 -19.5 -70t-51.5 -48t-70 -17q-114 0 -150 106l-61 193h-569l-62 -191q-34 -108 -147 -108q-63 0 -107.5 41.5t-44.5 101.5q0 29 14 68zM647 1163l-194 -594h389
l-191 594h-4zM428 1809l217 88l217 -88q48 -19 71.5 -48.5t23.5 -76.5q0 -50 -38 -90.5t-87 -40.5q-19 0 -107 36l-80 35l-80 -35q-86 -36 -106 -36q-49 0 -87 40.5t-38 90.5q0 88 94 125z" />
    <glyph glyph-name="Adieresis" unicode="&#xc4;" horiz-adv-x="1290" 
d="M18 199l412 1114q29 77 86.5 123.5t132.5 46.5q79 0 135.5 -46t83.5 -124l402 -1114q16 -44 16 -76q0 -39 -19.5 -70t-51.5 -48t-70 -17q-114 0 -150 106l-61 193h-569l-62 -191q-34 -108 -147 -108q-63 0 -107.5 41.5t-44.5 101.5q0 29 14 68zM647 1163l-194 -594h389
l-191 594h-4zM723 1714q0 60 43 104t105 44q63 0 105 -43t42 -105q0 -63 -42 -105t-105 -42q-62 0 -105 43t-43 104zM273 1714q0 62 42 105t105 43q62 0 105 -43t43 -105q0 -63 -43 -105t-105 -42q-63 0 -105 42t-42 105z" />
    <glyph glyph-name="Agrave" unicode="&#xc0;" horiz-adv-x="1290" 
d="M18 199l412 1114q29 77 86.5 123.5t132.5 46.5q79 0 135.5 -46t83.5 -124l402 -1114q16 -44 16 -76q0 -39 -19.5 -70t-51.5 -48t-70 -17q-114 0 -150 106l-61 193h-569l-62 -191q-34 -108 -147 -108q-63 0 -107.5 41.5t-44.5 101.5q0 29 14 68zM647 1163l-194 -594h389
l-191 594h-4zM582 1895l242 -99l16 -8q25 -13 41 -35t16 -47q0 -55 -32 -102t-76 -47q-21 0 -26.5 1t-16 5t-39.5 14l-230 90q-84 31 -84 121q0 43 33.5 85t77.5 42q26 0 78 -20z" />
    <glyph glyph-name="Aring" unicode="&#xc5;" horiz-adv-x="1290" 
d="M18 199l412 1114q29 77 86.5 123.5t132.5 46.5q79 0 135.5 -46t83.5 -124l402 -1114q16 -44 16 -76q0 -39 -19.5 -70t-51.5 -48t-70 -17q-114 0 -150 106l-61 193h-569l-62 -191q-34 -108 -147 -108q-63 0 -107.5 41.5t-44.5 101.5q0 29 14 68zM647 1163l-194 -594h389
l-191 594h-4zM443 1721q0 54 27 101t74 74t101 27q56 0 102.5 -27t73.5 -74t27 -101q0 -85 -60 -144t-143 -59q-82 0 -142 60t-60 143zM553 1721q0 -39 27 -66t65 -27q39 0 65.5 27.5t26.5 65.5q0 39 -26.5 65.5t-65.5 26.5q-38 0 -65 -26t-27 -66z" />
    <glyph glyph-name="Atilde" unicode="&#xc3;" horiz-adv-x="1290" 
d="M18 199l412 1114q29 77 86.5 123.5t132.5 46.5q79 0 135.5 -46t83.5 -124l402 -1114q16 -44 16 -76q0 -39 -19.5 -70t-51.5 -48t-70 -17q-114 0 -150 106l-61 193h-569l-62 -191q-34 -108 -147 -108q-63 0 -107.5 41.5t-44.5 101.5q0 29 14 68zM647 1163l-194 -594h389
l-191 594h-4zM408 1571q-37 0 -70 34t-33 73q0 82 56.5 131t138.5 49q53 0 133.5 -25.5t95.5 -25.5q17 0 74 29.5t86 29.5q46 0 71 -33.5t25 -81.5q0 -73 -62.5 -125.5t-137.5 -52.5q-32 0 -121 25.5t-111 25.5q-16 0 -28.5 -5.5t-36.5 -20.5t-40 -21t-40 -6z" />
    <glyph glyph-name="B" unicode="B" 
d="M92 156v1149q0 72 45.5 112.5t116.5 40.5h393q106 0 194 -45t139.5 -127.5t51.5 -187.5q0 -213 -190 -301v-4q64 -9 121 -39.5t100.5 -77.5t66.5 -105t23 -127q0 -212 -129.5 -328t-345.5 -116h-422q-72 0 -118 43t-46 113zM399 1188v-307h160q76 0 121 42.5t45 118.5
q0 70 -46.5 108t-119.5 38h-160zM399 610v-340h242q86 0 139.5 47.5t53.5 131.5q0 74 -55.5 117.5t-162.5 43.5h-217z" />
    <glyph glyph-name="C" unicode="C" horiz-adv-x="1251" 
d="M35 729q0 159 51 297t145.5 241t223.5 159.5t284 56.5q63 0 141 -12t144.5 -37.5t111 -70.5t44.5 -110q0 -56 -36.5 -96.5t-90.5 -40.5q-33 0 -92.5 23t-103 36t-118.5 13q-94 0 -166 -36.5t-120 -99.5t-73.5 -148t-25.5 -181q0 -193 102 -323t283 -130q76 0 120.5 15
t108 43t97.5 28q63 0 99 -47.5t36 -91.5q0 -90 -77 -144t-183.5 -76t-200.5 -22q-204 0 -364.5 99.5t-250 272.5t-89.5 382z" />
    <glyph glyph-name="Ccedilla" unicode="&#xc7;" horiz-adv-x="1251" 
d="M35 729q0 159 51 297t145.5 241t223.5 159.5t284 56.5q63 0 141 -12t144.5 -37.5t111 -70.5t44.5 -110q0 -56 -36.5 -96.5t-90.5 -40.5q-33 0 -92.5 23t-103 36t-118.5 13q-94 0 -166 -36.5t-120 -99.5t-73.5 -148t-25.5 -181q0 -193 102 -323t283 -130q76 0 120.5 15
t108 43t97.5 28q63 0 99 -47.5t36 -91.5q0 -90 -77 -144t-183.5 -76t-200.5 -22q-204 0 -364.5 99.5t-250 272.5t-89.5 382zM659 0h123l-80 -104q1 0 17.5 3t27.5 3q68 0 111 -42t43 -114q0 -91 -70.5 -141.5t-157.5 -50.5q-67 0 -125.5 22t-58.5 80q0 24 13.5 38.5
t35.5 14.5q12 0 44.5 -9.5t54.5 -10.5q67 0 67 57q0 37 -17.5 47t-51.5 10q-43 5 -56.5 11t-13.5 36q0 22 45 82z" />
    <glyph glyph-name="D" unicode="D" horiz-adv-x="1366" 
d="M92 154v1146q0 70 45 114t113 44h340q172 0 306.5 -53t227 -150.5t140 -236t47.5 -309.5q0 -160 -49.5 -291t-142.5 -224.5t-224 -143.5t-285 -50h-356q-38 0 -74.5 15t-62 49.5t-25.5 89.5zM399 1176v-893h207q129 0 215 57.5t128 156t42 226.5q0 132 -43 235
t-134 160.5t-228 57.5h-187z" />
    <glyph glyph-name="E" unicode="E" horiz-adv-x="948" 
d="M92 154v1126q0 80 41 129t119 49h508q70 0 107.5 -41.5t37.5 -99.5q0 -38 -17 -69.5t-49.5 -51.5t-78.5 -20h-361v-299h336q72 0 111 -41t39 -101q0 -56 -40 -98.5t-110 -42.5h-336v-311h379q71 0 108.5 -41.5t37.5 -100.5q0 -33 -17 -67t-50 -54t-79 -20h-528
q-68 0 -113 42.5t-45 111.5z" />
    <glyph glyph-name="Eacute" unicode="&#xc9;" horiz-adv-x="948" 
d="M92 154v1126q0 80 41 129t119 49h508q70 0 107.5 -41.5t37.5 -99.5q0 -38 -17 -69.5t-49.5 -51.5t-78.5 -20h-361v-299h336q72 0 111 -41t39 -101q0 -56 -40 -98.5t-110 -42.5h-336v-311h379q71 0 108.5 -41.5t37.5 -100.5q0 -33 -17 -67t-50 -54t-79 -20h-528
q-68 0 -113 42.5t-45 111.5zM297 1796l242 99q52 20 78 20q44 0 77 -41.5t33 -85.5q0 -91 -84 -121l-229 -90l-37.5 -13.5t-18 -5.5t-26.5 -1q-44 0 -76.5 46.5t-32.5 102.5q0 52 58 82z" />
    <glyph glyph-name="Ecircumflex" unicode="&#xca;" horiz-adv-x="948" 
d="M92 154v1126q0 80 41 129t119 49h508q70 0 107.5 -41.5t37.5 -99.5q0 -38 -17 -69.5t-49.5 -51.5t-78.5 -20h-361v-299h336q72 0 111 -41t39 -101q0 -56 -40 -98.5t-110 -42.5h-336v-311h379q71 0 108.5 -41.5t37.5 -100.5q0 -33 -17 -67t-50 -54t-79 -20h-528
q-68 0 -113 42.5t-45 111.5zM258 1809l217 88l217 -88q48 -19 71.5 -48.5t23.5 -76.5q0 -50 -38 -90.5t-87 -40.5q-19 0 -107 36l-80 35l-80 -35q-86 -36 -106 -36q-49 0 -87 40.5t-38 90.5q0 88 94 125z" />
    <glyph glyph-name="Edieresis" unicode="&#xcb;" horiz-adv-x="948" 
d="M92 154v1126q0 80 41 129t119 49h508q70 0 107.5 -41.5t37.5 -99.5q0 -38 -17 -69.5t-49.5 -51.5t-78.5 -20h-361v-299h336q72 0 111 -41t39 -101q0 -56 -40 -98.5t-110 -42.5h-336v-311h379q71 0 108.5 -41.5t37.5 -100.5q0 -33 -17 -67t-50 -54t-79 -20h-528
q-68 0 -113 42.5t-45 111.5zM553 1714q0 60 43 104t105 44q63 0 105 -43t42 -105q0 -63 -42 -105t-105 -42q-62 0 -105 43t-43 104zM103 1714q0 62 42 105t105 43q62 0 105 -43t43 -105q0 -63 -43 -105t-105 -42q-63 0 -105 42t-42 105z" />
    <glyph glyph-name="Egrave" unicode="&#xc8;" horiz-adv-x="948" 
d="M92 154v1126q0 80 41 129t119 49h508q70 0 107.5 -41.5t37.5 -99.5q0 -38 -17 -69.5t-49.5 -51.5t-78.5 -20h-361v-299h336q72 0 111 -41t39 -101q0 -56 -40 -98.5t-110 -42.5h-336v-311h379q71 0 108.5 -41.5t37.5 -100.5q0 -33 -17 -67t-50 -54t-79 -20h-528
q-68 0 -113 42.5t-45 111.5zM412 1895l242 -99l16 -8q25 -13 41 -35t16 -47q0 -55 -32 -102t-76 -47q-21 0 -26.5 1t-16 5t-39.5 14l-230 90q-84 31 -84 121q0 43 33.5 85t77.5 42q26 0 78 -20z" />
    <glyph glyph-name="Eth" unicode="&#xd0;" horiz-adv-x="1366" 
d="M92 154v469h-55q-60 0 -94.5 35.5t-34.5 80.5q0 47 34 82t95 35h55v444q0 70 45 114t113 44h340q172 0 306.5 -53t227 -150.5t140 -236t47.5 -309.5q0 -160 -49.5 -291t-142.5 -224.5t-224 -143.5t-285 -50h-356q-38 0 -74.5 15t-62 49.5t-25.5 89.5zM399 1176v-320h168
q61 0 95 -35t34 -82q0 -45 -34.5 -80.5t-94.5 -35.5h-168v-340h207q129 0 215 57.5t128 156t42 226.5q0 132 -43 235t-134 160.5t-228 57.5h-187z" />
    <glyph glyph-name="F" unicode="F" horiz-adv-x="909" 
d="M92 147v1151q0 65 43.5 112.5t116.5 47.5h524q65 0 101 -42t36 -99t-36.5 -99t-100.5 -42h-377v-299h318q71 0 109 -41t38 -99t-38.5 -100.5t-108.5 -42.5h-318v-447q0 -76 -42.5 -117.5t-110.5 -41.5q-67 0 -110.5 42.5t-43.5 116.5z" />
    <glyph glyph-name="G" unicode="G" horiz-adv-x="1442" 
d="M879 864h348q96 0 138 -47.5t42 -148.5q0 -148 -46.5 -275t-134 -220.5t-212 -145.5t-275.5 -52q-204 0 -364.5 99.5t-250 272.5t-89.5 382q0 159 51 297t145.5 241t223.5 159.5t284 56.5q114 0 218.5 -25t181 -66t120.5 -93t44 -105q0 -65 -36.5 -104t-90.5 -39
q-56 0 -133.5 49.5t-132.5 74.5t-171 25q-122 0 -209.5 -64.5t-131.5 -171.5t-44 -235q0 -201 99.5 -336t285.5 -135q86 0 166 34t131 107t51 183h-208q-63 0 -103.5 39.5t-40.5 103.5q0 62 41.5 100.5t102.5 38.5z" />
    <glyph glyph-name="H" unicode="H" horiz-adv-x="1442" 
d="M92 147v1164q0 74 43.5 116.5t110.5 42.5q68 0 110.5 -41.5t42.5 -117.5v-434h643v434q0 74 43.5 116.5t110.5 42.5q69 0 111.5 -41.5t42.5 -117.5v-1164q0 -76 -42.5 -117.5t-111.5 -41.5q-67 0 -110.5 42.5t-43.5 116.5v447h-643v-447q0 -76 -42.5 -117.5t-110.5 -41.5
q-67 0 -110.5 42.5t-43.5 116.5z" />
    <glyph glyph-name="I" unicode="I" horiz-adv-x="492" 
d="M92 147v1164q0 74 43.5 116.5t110.5 42.5q68 0 110.5 -41.5t42.5 -117.5v-1164q0 -76 -42.5 -117.5t-110.5 -41.5q-67 0 -110.5 42.5t-43.5 116.5z" />
    <glyph glyph-name="Iacute" unicode="&#xcd;" horiz-adv-x="492" 
d="M92 147v1164q0 74 43.5 116.5t110.5 42.5q68 0 110.5 -41.5t42.5 -117.5v-1164q0 -76 -42.5 -117.5t-110.5 -41.5q-67 0 -110.5 42.5t-43.5 116.5zM67 1796l242 99q52 20 78 20q44 0 77 -41.5t33 -85.5q0 -91 -84 -121l-229 -90l-37.5 -13.5t-18 -5.5t-26.5 -1
q-44 0 -76.5 46.5t-32.5 102.5q0 52 58 82z" />
    <glyph glyph-name="Icircumflex" unicode="&#xce;" horiz-adv-x="492" 
d="M92 147v1164q0 74 43.5 116.5t110.5 42.5q68 0 110.5 -41.5t42.5 -117.5v-1164q0 -76 -42.5 -117.5t-110.5 -41.5q-67 0 -110.5 42.5t-43.5 116.5zM28 1809l217 88l217 -88q48 -19 71.5 -48.5t23.5 -76.5q0 -50 -38 -90.5t-87 -40.5q-19 0 -107 36l-80 35l-80 -35
q-86 -36 -106 -36q-49 0 -87 40.5t-38 90.5q0 88 94 125z" />
    <glyph glyph-name="Idieresis" unicode="&#xcf;" horiz-adv-x="492" 
d="M92 147v1164q0 74 43.5 116.5t110.5 42.5q68 0 110.5 -41.5t42.5 -117.5v-1164q0 -76 -42.5 -117.5t-110.5 -41.5q-67 0 -110.5 42.5t-43.5 116.5zM323 1714q0 60 43 104t105 44q63 0 105 -43t42 -105q0 -63 -42 -105t-105 -42q-62 0 -105 43t-43 104zM-127 1714
q0 62 42 105t105 43q62 0 105 -43t43 -105q0 -63 -43 -105t-105 -42q-63 0 -105 42t-42 105z" />
    <glyph glyph-name="Igrave" unicode="&#xcc;" horiz-adv-x="492" 
d="M92 147v1164q0 74 43.5 116.5t110.5 42.5q68 0 110.5 -41.5t42.5 -117.5v-1164q0 -76 -42.5 -117.5t-110.5 -41.5q-67 0 -110.5 42.5t-43.5 116.5zM182 1895l242 -99l16 -8q25 -13 41 -35t16 -47q0 -55 -32 -102t-76 -47q-21 0 -26.5 1t-16 5t-39.5 14l-230 90
q-84 31 -84 121q0 43 33.5 85t77.5 42q26 0 78 -20z" />
    <glyph glyph-name="J" unicode="J" horiz-adv-x="834" 
d="M754 1311v-901q0 -162 -59.5 -259t-150.5 -136.5t-196 -39.5q-135 0 -256 57.5t-121 176.5q0 28 15 57.5t41.5 48.5t58.5 19q27 0 58 -11t70.5 -30t63.5 -27t54 -8q75 0 94.5 48.5t19.5 123.5v881q0 74 43.5 116.5t110.5 42.5q69 0 111.5 -41.5t42.5 -117.5z" />
    <glyph glyph-name="K" unicode="K" horiz-adv-x="1251" 
d="M92 135v1184q0 64 43.5 107.5t110.5 43.5t110 -40.5t43 -110.5v-442l504 536q52 57 119 57q61 0 106.5 -41t45.5 -106q0 -38 -24 -74.5t-77 -89.5l-387 -381l473 -493q86 -86 86 -156q0 -67 -46 -104t-114 -37q-40 0 -72.5 22t-82.5 74l-531 573v-522q0 -62 -43.5 -104.5
t-109.5 -42.5q-67 0 -110.5 40.5t-43.5 106.5z" />
    <glyph glyph-name="L" unicode="L" horiz-adv-x="872" 
d="M92 168v1143q0 74 43.5 116.5t110.5 42.5q68 0 110.5 -41.5t42.5 -117.5v-1028h365q74 0 110.5 -44.5t36.5 -103.5q-3 -54 -43 -94.5t-104 -40.5h-512q-74 0 -117 45.5t-43 122.5z" />
    <glyph glyph-name="Lslash" unicode="&#x141;" horiz-adv-x="872" 
d="M92 168v324l-80 -62q-26 -20 -63 -20q-24 0 -46 13.5t-33 37t-11 55.5q0 38 23.5 63.5t84.5 71.5l125 94v566q0 74 43.5 116.5t110.5 42.5q68 0 110.5 -41.5t42.5 -117.5v-332l226 168q38 27 86 27q32 0 61 -27.5t29 -69.5q0 -36 -25.5 -63.5t-79.5 -67.5l-297 -217v-446
h365q74 0 110.5 -44.5t36.5 -103.5q-3 -54 -43 -94.5t-104 -40.5h-512q-74 0 -117 45.5t-43 122.5z" />
    <glyph glyph-name="M" unicode="M" horiz-adv-x="1782" 
d="M51 170l191 1143q10 59 66.5 108t133.5 49q74 0 130.5 -43.5t74.5 -103.5l242 -811h4l242 811q18 59 74.5 103t129.5 44q77 0 134 -49t67 -108l191 -1143q2 -12 2 -35q0 -67 -42.5 -107t-105.5 -40q-75 0 -111.5 34t-48.5 109l-120 834h-5l-245 -859q-36 -118 -164 -118
q-130 0 -164 118l-246 859h-4l-121 -834q-11 -74 -47.5 -108.5t-111.5 -34.5q-63 0 -105.5 40.5t-42.5 106.5q0 23 2 35z" />
    <glyph glyph-name="N" unicode="N" horiz-adv-x="1403" 
d="M80 147v1164q0 75 43 117t110 42q32 0 71 -20t58 -47l650 -866h4v774q0 75 43 117t110 42q69 0 111.5 -41.5t42.5 -117.5v-1164q0 -76 -42.5 -117.5t-111.5 -41.5q-28 0 -66.5 19.5t-62.5 47.5l-649 856h-4v-764q0 -76 -42.5 -117.5t-111.5 -41.5q-67 0 -110 42t-43 117z
" />
    <glyph glyph-name="Ntilde" unicode="&#xd1;" horiz-adv-x="1403" 
d="M80 147v1164q0 75 43 117t110 42q32 0 71 -20t58 -47l650 -866h4v774q0 75 43 117t110 42q69 0 111.5 -41.5t42.5 -117.5v-1164q0 -76 -42.5 -117.5t-111.5 -41.5q-28 0 -66.5 19.5t-62.5 47.5l-649 856h-4v-764q0 -76 -42.5 -117.5t-111.5 -41.5q-67 0 -110 42t-43 117z
M465 1571q-37 0 -70 34t-33 73q0 82 56.5 131t138.5 49q53 0 133.5 -25.5t95.5 -25.5q17 0 74 29.5t86 29.5q46 0 71 -33.5t25 -81.5q0 -73 -62.5 -125.5t-137.5 -52.5q-32 0 -121 25.5t-111 25.5q-16 0 -28.5 -5.5t-36.5 -20.5t-40 -21t-40 -6z" />
    <glyph glyph-name="O" unicode="O" horiz-adv-x="1479" 
d="M739 258q94 0 167 37t122 103.5t72.5 151t23.5 179.5q0 128 -44 235t-131.5 171.5t-209.5 64.5t-209.5 -64.5t-131.5 -171.5t-44 -235q0 -201 99.5 -336t285.5 -135zM739 -25q-204 0 -364.5 99.5t-250 272.5t-89.5 382q0 159 51 297t145.5 241t223.5 159.5t284 56.5
q152 0 282.5 -58.5t224.5 -161.5t146 -241t52 -293q0 -157 -50 -294.5t-145.5 -241.5t-225.5 -161t-284 -57z" />
    <glyph glyph-name="OE" unicode="&#x152;" horiz-adv-x="1972" 
d="M1419 1176v-299h340q72 0 111 -41t39 -101q0 -56 -40 -98.5t-110 -42.5h-340v-311h383q71 0 108.5 -41.5t37.5 -100.5q0 -33 -17 -67t-50 -54t-79 -20h-569q-62 0 -77 28.5t-15 88.5h-4q-43 -57 -107 -88t-135.5 -42.5t-155.5 -11.5q-204 0 -364.5 99.5t-250 272.5
t-89.5 382q0 159 51 297t145.5 241t223.5 159.5t284 56.5q74 0 146 -16.5t137 -51t117 -86.5l4 4q0 80 28.5 102.5t118.5 22.5h494q70 0 107.5 -41.5t37.5 -99.5q0 -38 -17 -69.5t-49.5 -51.5t-78.5 -20h-365zM354 729q0 -201 99.5 -336t285.5 -135q94 0 167 37t122 103.5
t72.5 151t23.5 179.5q0 128 -44 235t-131.5 171.5t-209.5 64.5t-209.5 -64.5t-131.5 -171.5t-44 -235z" />
    <glyph glyph-name="Oacute" unicode="&#xd3;" horiz-adv-x="1479" 
d="M739 258q94 0 167 37t122 103.5t72.5 151t23.5 179.5q0 128 -44 235t-131.5 171.5t-209.5 64.5t-209.5 -64.5t-131.5 -171.5t-44 -235q0 -201 99.5 -336t285.5 -135zM739 -25q-204 0 -364.5 99.5t-250 272.5t-89.5 382q0 159 51 297t145.5 241t223.5 159.5t284 56.5
q152 0 282.5 -58.5t224.5 -161.5t146 -241t52 -293q0 -157 -50 -294.5t-145.5 -241.5t-225.5 -161t-284 -57zM561 1796l242 99q52 20 78 20q44 0 77 -41.5t33 -85.5q0 -91 -84 -121l-229 -90l-37.5 -13.5t-18 -5.5t-26.5 -1q-44 0 -76.5 46.5t-32.5 102.5q0 52 58 82z" />
    <glyph glyph-name="Ocircumflex" unicode="&#xd4;" horiz-adv-x="1479" 
d="M739 258q94 0 167 37t122 103.5t72.5 151t23.5 179.5q0 128 -44 235t-131.5 171.5t-209.5 64.5t-209.5 -64.5t-131.5 -171.5t-44 -235q0 -201 99.5 -336t285.5 -135zM739 -25q-204 0 -364.5 99.5t-250 272.5t-89.5 382q0 159 51 297t145.5 241t223.5 159.5t284 56.5
q152 0 282.5 -58.5t224.5 -161.5t146 -241t52 -293q0 -157 -50 -294.5t-145.5 -241.5t-225.5 -161t-284 -57zM522 1809l217 88l217 -88q48 -19 71.5 -48.5t23.5 -76.5q0 -50 -38 -90.5t-87 -40.5q-19 0 -107 36l-80 35l-80 -35q-86 -36 -106 -36q-49 0 -87 40.5t-38 90.5
q0 88 94 125z" />
    <glyph glyph-name="Odieresis" unicode="&#xd6;" horiz-adv-x="1479" 
d="M739 258q94 0 167 37t122 103.5t72.5 151t23.5 179.5q0 128 -44 235t-131.5 171.5t-209.5 64.5t-209.5 -64.5t-131.5 -171.5t-44 -235q0 -201 99.5 -336t285.5 -135zM739 -25q-204 0 -364.5 99.5t-250 272.5t-89.5 382q0 159 51 297t145.5 241t223.5 159.5t284 56.5
q152 0 282.5 -58.5t224.5 -161.5t146 -241t52 -293q0 -157 -50 -294.5t-145.5 -241.5t-225.5 -161t-284 -57zM817 1714q0 60 43 104t105 44q63 0 105 -43t42 -105q0 -63 -42 -105t-105 -42q-62 0 -105 43t-43 104zM367 1714q0 62 42 105t105 43q62 0 105 -43t43 -105
q0 -63 -43 -105t-105 -42q-63 0 -105 42t-42 105z" />
    <glyph glyph-name="Ograve" unicode="&#xd2;" horiz-adv-x="1479" 
d="M739 258q94 0 167 37t122 103.5t72.5 151t23.5 179.5q0 128 -44 235t-131.5 171.5t-209.5 64.5t-209.5 -64.5t-131.5 -171.5t-44 -235q0 -201 99.5 -336t285.5 -135zM739 -25q-204 0 -364.5 99.5t-250 272.5t-89.5 382q0 159 51 297t145.5 241t223.5 159.5t284 56.5
q152 0 282.5 -58.5t224.5 -161.5t146 -241t52 -293q0 -157 -50 -294.5t-145.5 -241.5t-225.5 -161t-284 -57zM676 1895l242 -99l16 -8q25 -13 41 -35t16 -47q0 -55 -32 -102t-76 -47q-21 0 -26.5 1t-16 5t-39.5 14l-230 90q-84 31 -84 121q0 43 33.5 85t77.5 42q26 0 78 -20
z" />
    <glyph glyph-name="Oslash" unicode="&#xd8;" horiz-adv-x="1479" 
d="M1079 963l-579 -617q88 -88 239 -88q94 0 167 37t122 103.5t72.5 151t23.5 179.5q0 139 -45 234zM29 119l143 145q-44 64 -74.5 138t-46.5 155.5t-16 171.5q0 159 51 297t145.5 241t223.5 159.5t284 56.5q266 0 443 -156l98 98q60 70 115 70q31 0 57.5 -20.5t26.5 -51.5
q0 -43 -21 -67l-155 -160q141 -207 141 -467q0 -157 -50 -294.5t-145.5 -241.5t-225.5 -161t-284 -57q-266 0 -446 156l-127 -129q-37 -39 -80 -39q-32 0 -59 28t-27 64q0 32 29 64zM397 500l580 614q-92 86 -238 86q-122 0 -209.5 -64.5t-131.5 -171.5t-44 -235
q0 -133 43 -229z" />
    <glyph glyph-name="Otilde" unicode="&#xd5;" horiz-adv-x="1479" 
d="M739 258q94 0 167 37t122 103.5t72.5 151t23.5 179.5q0 128 -44 235t-131.5 171.5t-209.5 64.5t-209.5 -64.5t-131.5 -171.5t-44 -235q0 -201 99.5 -336t285.5 -135zM739 -25q-204 0 -364.5 99.5t-250 272.5t-89.5 382q0 159 51 297t145.5 241t223.5 159.5t284 56.5
q152 0 282.5 -58.5t224.5 -161.5t146 -241t52 -293q0 -157 -50 -294.5t-145.5 -241.5t-225.5 -161t-284 -57zM502 1571q-37 0 -70 34t-33 73q0 82 56.5 131t138.5 49q53 0 133.5 -25.5t95.5 -25.5q17 0 74 29.5t86 29.5q46 0 71 -33.5t25 -81.5q0 -73 -62.5 -125.5
t-137.5 -52.5q-32 0 -121 25.5t-111 25.5q-16 0 -28.5 -5.5t-36.5 -20.5t-40 -21t-40 -6z" />
    <glyph glyph-name="P" unicode="P" horiz-adv-x="1139" 
d="M92 147v1151q0 74 42 117t118 43h362q147 0 268.5 -61.5t189 -173t67.5 -254.5q0 -111 -40.5 -201.5t-110 -153.5t-163.5 -97t-198 -34h-228v-336q0 -76 -42.5 -117.5t-110.5 -41.5q-67 0 -110.5 42.5t-43.5 116.5zM399 1188v-434h209q94 0 152.5 61t58.5 156
q0 61 -26 110.5t-74 78t-111 28.5h-209z" />
    <glyph glyph-name="Q" unicode="Q" horiz-adv-x="1479" 
d="M1217 -33l-117 99q-158 -91 -361 -91q-204 0 -364.5 99.5t-250 272.5t-89.5 382q0 159 51 297t145.5 241t223.5 159.5t284 56.5q152 0 282.5 -58.5t224.5 -161.5t146 -241t52 -293q0 -134 -35 -255t-102 -218l116 -100q36 -30 54 -58t18 -67q0 -34 -20 -63.5t-53 -47.5
t-68 -18q-61 0 -137 65zM975 547l100 -80q49 109 49 262q0 126 -44 233.5t-131.5 172.5t-209.5 65t-209.5 -64.5t-131.5 -171.5t-44 -235q0 -201 99.5 -336t285.5 -135q59 0 131 14l-73 72q-39 36 -39 82q0 62 38.5 104.5t100.5 42.5q37 0 78 -26z" />
    <glyph glyph-name="R" unicode="R" horiz-adv-x="1139" 
d="M92 147v1151q0 75 40.5 117.5t117.5 42.5h360q245 0 377.5 -113.5t132.5 -349.5q0 -83 -29 -150t-81.5 -115.5t-120 -78t-148.5 -43.5l349 -372q40 -44 40 -91q0 -62 -44.5 -109.5t-108.5 -47.5q-74 0 -119 53l-455 551h-4v-445q0 -76 -42.5 -117.5t-110.5 -41.5
q-67 0 -110.5 42.5t-43.5 116.5zM399 1176v-363h211q85 0 138 49t53 133q0 87 -52.5 134t-138.5 47h-211z" />
    <glyph glyph-name="S" unicode="S" horiz-adv-x="1100" 
d="M553 1483q70 0 165.5 -20t165.5 -66.5t70 -118.5q0 -63 -38 -107.5t-99 -44.5q-28 0 -60.5 10.5t-67 23.5t-69 20.5t-75.5 7.5q-69 0 -118.5 -36t-49.5 -97q0 -66 111.5 -105.5t248 -84.5t230.5 -139.5t94 -274.5q0 -140 -71 -249t-191 -168t-262 -59q-175 0 -336.5 51.5
t-161.5 178.5q0 62 37.5 103.5t99.5 41.5q30 0 66 -10t92 -29.5t98 -30t88 -10.5q66 0 113 22.5t71.5 62.5t24.5 91q0 78 -54.5 102t-250.5 86t-287.5 143t-91.5 241q0 140 69.5 245.5t186.5 162.5t252 57z" />
    <glyph glyph-name="Scaron" unicode="&#x160;" horiz-adv-x="1100" 
d="M553 1483q70 0 165.5 -20t165.5 -66.5t70 -118.5q0 -63 -38 -107.5t-99 -44.5q-28 0 -60.5 10.5t-67 23.5t-69 20.5t-75.5 7.5q-69 0 -118.5 -36t-49.5 -97q0 -66 111.5 -105.5t248 -84.5t230.5 -139.5t94 -274.5q0 -140 -71 -249t-191 -168t-262 -59q-175 0 -336.5 51.5
t-161.5 178.5q0 62 37.5 103.5t99.5 41.5q30 0 66 -10t92 -29.5t98 -30t88 -10.5q66 0 113 22.5t71.5 62.5t24.5 91q0 78 -54.5 102t-250.5 86t-287.5 143t-91.5 241q0 140 69.5 245.5t186.5 162.5t252 57zM551 1544l-217 88q-94 37 -94 125q0 50 38 90.5t87 40.5
q20 0 106 -36l80 -35l80 35q88 36 107 36q49 0 87 -40.5t38 -90.5q0 -46 -23.5 -75t-71.5 -50z" />
    <glyph glyph-name="T" unicode="T" horiz-adv-x="983" 
d="M338 147v1029h-223q-68 0 -104 41.5t-36 99.5q0 36 17.5 69t50 52.5t72.5 19.5h753q40 0 72.5 -19.5t50 -52.5t17.5 -69q0 -58 -35 -99.5t-105 -41.5h-223v-1029q0 -76 -42.5 -117.5t-110.5 -41.5q-69 0 -111.5 41.5t-42.5 117.5z" />
    <glyph glyph-name="Thorn" unicode="&#xde;" horiz-adv-x="1139" 
d="M399 983v-434h209q94 0 152.5 61t58.5 156q0 61 -26 110.5t-74 78t-111 28.5h-209zM92 147v1164q0 74 43.5 116.5t110.5 42.5q68 0 110.5 -41.5t42.5 -117.5v-58h215q147 0 268.5 -61.5t189 -173t67.5 -254.5q0 -111 -40.5 -201.5t-110.5 -153.5t-163.5 -96.5
t-197.5 -33.5h-228v-132q0 -76 -42.5 -117.5t-110.5 -41.5q-67 0 -110.5 42.5t-43.5 116.5z" />
    <glyph glyph-name="U" unicode="U" horiz-adv-x="1403" 
d="M80 580v731q0 75 43 117t110 42q69 0 111.5 -41.5t42.5 -117.5v-715q0 -95 38 -171.5t110.5 -121.5t166.5 -45q137 0 225.5 100t88.5 238v715q0 75 43 117t110 42q69 0 111.5 -41.5t42.5 -117.5v-731q0 -126 -48 -236.5t-134 -193.5t-199 -129t-240 -46q-169 0 -312 78.5
t-226.5 217t-83.5 309.5z" />
    <glyph glyph-name="Uacute" unicode="&#xda;" horiz-adv-x="1403" 
d="M80 580v731q0 75 43 117t110 42q69 0 111.5 -41.5t42.5 -117.5v-715q0 -95 38 -171.5t110.5 -121.5t166.5 -45q137 0 225.5 100t88.5 238v715q0 75 43 117t110 42q69 0 111.5 -41.5t42.5 -117.5v-731q0 -126 -48 -236.5t-134 -193.5t-199 -129t-240 -46q-169 0 -312 78.5
t-226.5 217t-83.5 309.5zM524 1796l242 99q52 20 78 20q44 0 77 -41.5t33 -85.5q0 -91 -84 -121l-229 -90l-37.5 -13.5t-18 -5.5t-26.5 -1q-44 0 -76.5 46.5t-32.5 102.5q0 52 58 82z" />
    <glyph glyph-name="Ucircumflex" unicode="&#xdb;" horiz-adv-x="1403" 
d="M80 580v731q0 75 43 117t110 42q69 0 111.5 -41.5t42.5 -117.5v-715q0 -95 38 -171.5t110.5 -121.5t166.5 -45q137 0 225.5 100t88.5 238v715q0 75 43 117t110 42q69 0 111.5 -41.5t42.5 -117.5v-731q0 -126 -48 -236.5t-134 -193.5t-199 -129t-240 -46q-169 0 -312 78.5
t-226.5 217t-83.5 309.5zM485 1809l217 88l217 -88q48 -19 71.5 -48.5t23.5 -76.5q0 -50 -38 -90.5t-87 -40.5q-19 0 -107 36l-80 35l-80 -35q-86 -36 -106 -36q-49 0 -87 40.5t-38 90.5q0 88 94 125z" />
    <glyph glyph-name="Udieresis" unicode="&#xdc;" horiz-adv-x="1403" 
d="M80 580v731q0 75 43 117t110 42q69 0 111.5 -41.5t42.5 -117.5v-715q0 -95 38 -171.5t110.5 -121.5t166.5 -45q137 0 225.5 100t88.5 238v715q0 75 43 117t110 42q69 0 111.5 -41.5t42.5 -117.5v-731q0 -126 -48 -236.5t-134 -193.5t-199 -129t-240 -46q-169 0 -312 78.5
t-226.5 217t-83.5 309.5zM780 1714q0 60 43 104t105 44q63 0 105 -43t42 -105q0 -63 -42 -105t-105 -42q-62 0 -105 43t-43 104zM330 1714q0 62 42 105t105 43q62 0 105 -43t43 -105q0 -63 -43 -105t-105 -42q-63 0 -105 42t-42 105z" />
    <glyph glyph-name="Ugrave" unicode="&#xd9;" horiz-adv-x="1403" 
d="M80 580v731q0 75 43 117t110 42q69 0 111.5 -41.5t42.5 -117.5v-715q0 -95 38 -171.5t110.5 -121.5t166.5 -45q137 0 225.5 100t88.5 238v715q0 75 43 117t110 42q69 0 111.5 -41.5t42.5 -117.5v-731q0 -126 -48 -236.5t-134 -193.5t-199 -129t-240 -46q-169 0 -312 78.5
t-226.5 217t-83.5 309.5zM639 1895l242 -99l16 -8q25 -13 41 -35t16 -47q0 -55 -32 -102t-76 -47q-21 0 -26.5 1t-16 5t-39.5 14l-230 90q-84 31 -84 121q0 43 33.5 85t77.5 42q26 0 78 -20z" />
    <glyph glyph-name="V" unicode="V" horiz-adv-x="1212" 
d="M455 106l-449 1141q-14 38 -14 76q0 63 47.5 105t110.5 42q90 0 139 -100l317 -852l318 852q47 100 139 100q64 0 111 -42t47 -105q0 -39 -15 -76l-448 -1141q-23 -56 -56.5 -87t-95.5 -31t-94.5 30t-56.5 88z" />
    <glyph glyph-name="W" unicode="W" horiz-adv-x="1860" 
d="M285 147l-260 1119q-9 33 -9 69q0 53 41 94t105 41q133 0 164 -147l174 -870h4l266 897q18 56 61 88t99 32t99.5 -32t60.5 -88l266 -897h4l174 870q14 72 53 109.5t111 37.5q65 0 105 -41t40 -94q0 -34 -8 -69l-260 -1119q-16 -69 -68.5 -114t-134.5 -45q-73 0 -128 42
t-75 107l-237 791h-4l-238 -791q-19 -65 -74 -107t-129 -42q-81 0 -133.5 45t-68.5 114z" />
    <glyph glyph-name="X" unicode="X" horiz-adv-x="1253" 
d="M43 236l406 544l-332 451q-33 41 -33 90q0 66 44.5 107.5t111.5 41.5q39 0 76 -22.5t57 -52.5l254 -361l254 361q20 30 57 52.5t76 22.5q41 0 78 -19t57 -52.5t20 -77.5q0 -48 -32 -90l-332 -451l405 -544q35 -47 35 -105q0 -65 -43 -104t-112 -39q-80 0 -127 67
l-336 467l-336 -467q-48 -67 -127 -67q-68 0 -112 40t-44 103q0 55 35 105z" />
    <glyph glyph-name="Y" unicode="Y" horiz-adv-x="1098" 
d="M395 137v547l-387 545q-28 40 -28 92q0 62 41.5 105.5t105.5 43.5q85 0 127 -61l295 -428l295 428q41 61 127 61q64 0 105.5 -43.5t41.5 -105.5q0 -52 -28 -92l-388 -545v-547q0 -63 -38.5 -106t-114.5 -43q-77 0 -115.5 43t-38.5 106z" />
    <glyph glyph-name="Yacute" unicode="&#xdd;" horiz-adv-x="1098" 
d="M395 137v547l-387 545q-28 40 -28 92q0 62 41.5 105.5t105.5 43.5q85 0 127 -61l295 -428l295 428q41 61 127 61q64 0 105.5 -43.5t41.5 -105.5q0 -52 -28 -92l-388 -545v-547q0 -63 -38.5 -106t-114.5 -43q-77 0 -115.5 43t-38.5 106zM371 1796l242 99q52 20 78 20
q44 0 77 -41.5t33 -85.5q0 -91 -84 -121l-229 -90l-37.5 -13.5t-18 -5.5t-26.5 -1q-44 0 -76.5 46.5t-32.5 102.5q0 52 58 82z" />
    <glyph glyph-name="Ydieresis" unicode="&#x178;" horiz-adv-x="1098" 
d="M395 137v547l-387 545q-28 40 -28 92q0 62 41.5 105.5t105.5 43.5q85 0 127 -61l295 -428l295 428q41 61 127 61q64 0 105.5 -43.5t41.5 -105.5q0 -52 -28 -92l-388 -545v-547q0 -63 -38.5 -106t-114.5 -43q-77 0 -115.5 43t-38.5 106zM627 1714q0 60 43 104t105 44
q63 0 105 -43t42 -105q0 -63 -42 -105t-105 -42q-62 0 -105 43t-43 104zM177 1714q0 62 42 105t105 43q62 0 105 -43t43 -105q0 -63 -43 -105t-105 -42q-63 0 -105 42t-42 105z" />
    <glyph glyph-name="Z" unicode="Z" horiz-adv-x="1214" 
d="M428 270h594q66 0 106.5 -35t40.5 -100q0 -58 -44.5 -96.5t-102.5 -38.5h-805q-80 0 -126 40.5t-46 106.5q0 63 41 119l659 922h-538q-63 0 -103.5 35t-40.5 96q0 58 42.5 98.5t101.5 40.5h749q84 0 128 -44t44 -103q0 -74 -45 -131z" />
    <glyph glyph-name="Zcaron" unicode="&#x17d;" horiz-adv-x="1214" 
d="M428 270h594q66 0 106.5 -35t40.5 -100q0 -58 -44.5 -96.5t-102.5 -38.5h-805q-80 0 -126 40.5t-46 106.5q0 63 41 119l659 922h-538q-63 0 -103.5 35t-40.5 96q0 58 42.5 98.5t101.5 40.5h749q84 0 128 -44t44 -103q0 -74 -45 -131zM608 1544l-217 88q-94 37 -94 125
q0 50 38 90.5t87 40.5q20 0 106 -36l80 -35l80 35q88 36 107 36q49 0 87 -40.5t38 -90.5q0 -46 -23.5 -75t-71.5 -50z" />
    <glyph glyph-name="a" unicode="a" 
d="M1092 909v-729q0 -86 -24 -139t-118 -53q-60 0 -92.5 31.5t-48.5 93.5q-117 -138 -281 -138q-136 0 -248 73t-175.5 202.5t-63.5 292.5q0 157 65 288.5t177 207t245 75.5q83 0 158 -34t123 -101q6 54 46.5 88.5t94.5 34.5q94 0 118 -53.5t24 -139.5zM336 543
q0 -75 26.5 -143.5t79 -111t127.5 -42.5q108 0 168 89.5t60 207.5q0 74 -25.5 143.5t-78 113.5t-124.5 44q-74 0 -127.5 -43.5t-79.5 -113.5t-26 -144z" />
    <glyph glyph-name="aacute" unicode="&#xe1;" 
d="M1092 909v-729q0 -86 -24 -139t-118 -53q-60 0 -92.5 31.5t-48.5 93.5q-117 -138 -281 -138q-136 0 -248 73t-175.5 202.5t-63.5 292.5q0 157 65 288.5t177 207t245 75.5q83 0 158 -34t123 -101q6 54 46.5 88.5t94.5 34.5q94 0 118 -53.5t24 -139.5zM336 543
q0 -75 26.5 -143.5t79 -111t127.5 -42.5q108 0 168 89.5t60 207.5q0 74 -25.5 143.5t-78 113.5t-124.5 44q-74 0 -127.5 -43.5t-79.5 -113.5t-26 -144zM409 1464l242 99q52 20 78 20q44 0 77 -41.5t33 -85.5q0 -91 -84 -121l-229 -90l-37.5 -13.5t-18 -5.5t-26.5 -1
q-44 0 -76.5 46.5t-32.5 102.5q0 52 58 82z" />
    <glyph glyph-name="acircumflex" unicode="&#xe2;" 
d="M1092 909v-729q0 -86 -24 -139t-118 -53q-60 0 -92.5 31.5t-48.5 93.5q-117 -138 -281 -138q-136 0 -248 73t-175.5 202.5t-63.5 292.5q0 157 65 288.5t177 207t245 75.5q83 0 158 -34t123 -101q6 54 46.5 88.5t94.5 34.5q94 0 118 -53.5t24 -139.5zM336 543
q0 -75 26.5 -143.5t79 -111t127.5 -42.5q108 0 168 89.5t60 207.5q0 74 -25.5 143.5t-78 113.5t-124.5 44q-74 0 -127.5 -43.5t-79.5 -113.5t-26 -144zM370 1477l217 88l217 -88q48 -19 71.5 -48.5t23.5 -76.5q0 -50 -38 -90.5t-87 -40.5q-19 0 -107 36l-80 35l-80 -35
q-86 -36 -106 -36q-49 0 -87 40.5t-38 90.5q0 88 94 125z" />
    <glyph glyph-name="acute" unicode="&#xb4;" horiz-adv-x="455" 
d="M49 1464l242 99q52 20 78 20q44 0 77 -41.5t33 -85.5q0 -91 -84 -121l-229 -90l-37.5 -13.5t-18 -5.5t-26.5 -1q-44 0 -76.5 46.5t-32.5 102.5q0 52 58 82z" />
    <glyph glyph-name="adieresis" unicode="&#xe4;" 
d="M1092 909v-729q0 -86 -24 -139t-118 -53q-60 0 -92.5 31.5t-48.5 93.5q-117 -138 -281 -138q-136 0 -248 73t-175.5 202.5t-63.5 292.5q0 157 65 288.5t177 207t245 75.5q83 0 158 -34t123 -101q6 54 46.5 88.5t94.5 34.5q94 0 118 -53.5t24 -139.5zM336 543
q0 -75 26.5 -143.5t79 -111t127.5 -42.5q108 0 168 89.5t60 207.5q0 74 -25.5 143.5t-78 113.5t-124.5 44q-74 0 -127.5 -43.5t-79.5 -113.5t-26 -144zM665 1382q0 60 43 104t105 44q63 0 105 -43t42 -105q0 -63 -42 -105t-105 -42q-62 0 -105 43t-43 104zM215 1382
q0 62 42 105t105 43q62 0 105 -43t43 -105q0 -63 -43 -105t-105 -42q-63 0 -105 42t-42 105z" />
    <glyph glyph-name="ae" unicode="&#xe6;" horiz-adv-x="1858" 
d="M336 543q0 -75 26.5 -143.5t79 -111t127.5 -42.5q108 0 168 89.5t60 207.5q0 74 -25.5 143.5t-78 113.5t-124.5 44q-74 0 -127.5 -43.5t-79.5 -113.5t-26 -144zM1708 446h-629q16 -104 94.5 -158.5t186.5 -54.5q65 0 108.5 19.5t117.5 59.5t106 40q47 0 83.5 -39
t36.5 -88q0 -61 -73.5 -119.5t-188 -94.5t-219.5 -36q-171 0 -287 86q-13 -37 -36.5 -55t-73.5 -18q-64 0 -94.5 33.5t-30.5 91.5h-4q-110 -138 -277 -138q-136 0 -248 73t-175.5 202.5t-63.5 292.5q0 157 65 288.5t177 207t245 75.5q87 0 160.5 -34t124.5 -101h4
q0 59 34 91t83 32q90 0 110 -82q101 94 259 94q138 0 262 -74t198 -198.5t74 -263.5q0 -132 -129 -132zM1075 643h467q-12 101 -73 163t-160 62q-95 0 -158 -63t-76 -162z" />
    <glyph glyph-name="agrave" unicode="&#xe0;" 
d="M1092 909v-729q0 -86 -24 -139t-118 -53q-60 0 -92.5 31.5t-48.5 93.5q-117 -138 -281 -138q-136 0 -248 73t-175.5 202.5t-63.5 292.5q0 157 65 288.5t177 207t245 75.5q83 0 158 -34t123 -101q6 54 46.5 88.5t94.5 34.5q94 0 118 -53.5t24 -139.5zM336 543
q0 -75 26.5 -143.5t79 -111t127.5 -42.5q108 0 168 89.5t60 207.5q0 74 -25.5 143.5t-78 113.5t-124.5 44q-74 0 -127.5 -43.5t-79.5 -113.5t-26 -144zM524 1563l242 -99l16 -8q25 -13 41 -35t16 -47q0 -55 -32 -102t-76 -47q-21 0 -26.5 1t-16 5t-39.5 14l-230 90
q-84 31 -84 121q0 43 33.5 85t77.5 42q26 0 78 -20z" />
    <glyph glyph-name="ampersand" unicode="&#x26;" horiz-adv-x="1442" 
d="M817 365l-297 329q-82 -51 -129 -109t-47 -139q0 -94 58.5 -147t154.5 -53q80 0 137.5 28.5t122.5 90.5zM811 803l215 -238l80 92q46 53 77.5 74t78.5 21t79.5 -36t32.5 -93q0 -38 -28.5 -86t-83.5 -109l-52 -55l140 -158q23 -27 34 -47.5t11 -54.5q0 -54 -43 -96
t-101 -42q-63 0 -108 48l-142 147q-66 -58 -137.5 -103t-149.5 -68.5t-163 -23.5q-139 0 -253.5 51.5t-181.5 152t-67 239.5q0 144 86 256.5t223 187.5q-65 67 -100 131.5t-35 145.5q0 110 62 188.5t160 117t208 38.5q96 0 194 -37t161 -110t63 -175q0 -116 -74 -208
t-186 -150zM788 1130q0 63 -41.5 91t-93.5 28q-44 0 -83.5 -29.5t-39.5 -72.5q0 -44 24 -80t85 -96q149 73 149 159z" />
    <glyph glyph-name="aring" unicode="&#xe5;" 
d="M1092 909v-729q0 -86 -24 -139t-118 -53q-60 0 -92.5 31.5t-48.5 93.5q-117 -138 -281 -138q-136 0 -248 73t-175.5 202.5t-63.5 292.5q0 157 65 288.5t177 207t245 75.5q83 0 158 -34t123 -101q6 54 46.5 88.5t94.5 34.5q94 0 118 -53.5t24 -139.5zM336 543
q0 -75 26.5 -143.5t79 -111t127.5 -42.5q108 0 168 89.5t60 207.5q0 74 -25.5 143.5t-78 113.5t-124.5 44q-74 0 -127.5 -43.5t-79.5 -113.5t-26 -144zM385 1389q0 54 27 101t74 74t101 27q56 0 102.5 -27t73.5 -74t27 -101q0 -85 -60 -144t-143 -59q-82 0 -142 60t-60 143z
M495 1389q0 -39 27 -66t65 -27q39 0 65.5 27.5t26.5 65.5q0 39 -26.5 65.5t-65.5 26.5q-38 0 -65 -26t-27 -66z" />
    <glyph glyph-name="asciicircum" unicode="^" horiz-adv-x="1229" 
d="M614 1163l-256 -473q-31 -45 -104 -45q-44 0 -74 21.5t-30 60.5q0 32 26 82l330 600q30 61 108 61t109 -61l330 -600q26 -50 26 -82q0 -39 -29.5 -60.5t-74.5 -21.5q-73 0 -105 45z" />
    <glyph glyph-name="asciitilde" unicode="~" horiz-adv-x="1229" 
d="M829 571q38 0 64.5 15.5t60 48t54.5 47t49 14.5q46 0 67 -29t21 -71q0 -65 -37.5 -127.5t-108.5 -102.5t-165 -40q-49 0 -103 17.5t-127.5 51t-122.5 52t-82 18.5q-38 0 -65 -16t-62 -50t-53.5 -46.5t-46.5 -12.5q-45 0 -66.5 30t-21.5 70q0 65 37 127.5t108.5 103
t165.5 40.5q51 0 110.5 -19.5t113 -44t116 -50.5t94.5 -26z" />
    <glyph glyph-name="asterisk" unicode="*" horiz-adv-x="797" 
d="M397 1470q46 0 75.5 -22.5t29.5 -71.5q0 -21 -7.5 -62t-9.5 -67q40 30 61 46t42 27t43 11q44 0 75 -36t31 -83q0 -35 -23.5 -56t-75.5 -42.5t-65 -28.5q44 -17 80.5 -32t60 -36t23.5 -56q0 -47 -30.5 -84t-75.5 -37q-22 0 -42 10.5t-45 30.5t-59 45q2 -25 9.5 -66
t7.5 -63q0 -49 -30 -72t-75 -23q-44 0 -74 23t-30 72q0 8 1.5 23t4.5 34.5t5 33t5 38.5q-30 -22 -58 -43t-48 -32t-41 -11q-46 0 -74.5 37.5t-28.5 83.5q0 35 24 56t60 36t78 32q-9 5 -61.5 27.5t-76.5 43.5t-24 56q0 47 28.5 83t74.5 36q21 0 42 -11t53 -35t52 -38
q-2 24 -4 37t-5.5 35t-5 36.5t-1.5 20.5q0 49 29.5 71.5t74.5 22.5z" />
    <glyph glyph-name="at" unicode="@" horiz-adv-x="1638" 
d="M735 516q57 0 104.5 31t74 81.5t26.5 108.5q0 73 -41.5 123.5t-114.5 50.5q-52 0 -96.5 -33t-70 -83t-25.5 -103q0 -70 38 -123t105 -53zM819 1483q145 0 281.5 -50t241.5 -138t168 -209t63 -261q0 -141 -62.5 -241.5t-154 -161.5t-177.5 -88t-132 -27q-142 0 -142 101
h-4q-37 -46 -94.5 -73.5t-120.5 -27.5q-64 0 -119.5 30.5t-96.5 81t-64 115t-23 130.5q0 86 28.5 169t81 147.5t126.5 102t163 37.5q161 0 240 -123h4v25q0 98 115 98q40 0 67 -15t27 -42q0 -24 -8 -66l-82 -372q-8 -34 -8 -68q0 -43 47 -43q35 0 84 34.5t85 105t36 171.5
q0 107 -45.5 195.5t-126.5 150.5t-182.5 94.5t-215.5 32.5t-219.5 -44t-182.5 -121t-122 -182.5t-45 -221.5q0 -115 44 -219.5t122.5 -183t183 -122.5t219.5 -44q246 0 426 96q10 5 62 46.5t75 41.5q76 0 76 -76q0 -26 -13 -50.5t-42 -59.5q-113 -103 -258.5 -143
t-325.5 -40q-205 0 -378 101.5t-274 274.5t-101 378t101 378t274 274.5t378 101.5z" />
    <glyph glyph-name="atilde" unicode="&#xe3;" 
d="M1092 909v-729q0 -86 -24 -139t-118 -53q-60 0 -92.5 31.5t-48.5 93.5q-117 -138 -281 -138q-136 0 -248 73t-175.5 202.5t-63.5 292.5q0 157 65 288.5t177 207t245 75.5q83 0 158 -34t123 -101q6 54 46.5 88.5t94.5 34.5q94 0 118 -53.5t24 -139.5zM336 543
q0 -75 26.5 -143.5t79 -111t127.5 -42.5q108 0 168 89.5t60 207.5q0 74 -25.5 143.5t-78 113.5t-124.5 44q-74 0 -127.5 -43.5t-79.5 -113.5t-26 -144zM350 1239q-37 0 -70 34t-33 73q0 82 56.5 131t138.5 49q53 0 133.5 -25.5t95.5 -25.5q17 0 74 29.5t86 29.5
q46 0 71 -33.5t25 -81.5q0 -73 -62.5 -125.5t-137.5 -52.5q-32 0 -121 25.5t-111 25.5q-16 0 -28.5 -5.5t-36.5 -20.5t-40 -21t-40 -6z" />
    <glyph glyph-name="b" unicode="b" 
d="M84 152v1261q0 73 40.5 118.5t106.5 45.5q43 0 76.5 -20.5t52.5 -58t19 -85.5v-401q56 49 130 75.5t150 26.5q151 0 258.5 -83t162.5 -217t55 -284q0 -140 -60.5 -268.5t-172.5 -207.5t-253 -79q-81 0 -155.5 35.5t-114.5 100.5q-30 -123 -148 -123q-66 0 -106.5 45.5
t-40.5 118.5zM379 553q0 -119 59.5 -213t171.5 -94q72 0 125 44t79 111.5t26 141.5t-26 143t-78.5 113.5t-125.5 44.5q-75 0 -127.5 -41.5t-78 -107.5t-25.5 -142z" />
    <glyph glyph-name="backslash" unicode="\" horiz-adv-x="834" 
d="M252 1407l547 -1262q18 -42 18 -57q0 -47 -36 -80t-87 -33q-82 0 -112 76l-549 1262q-17 48 -17 57q0 47 35 80t86 33q83 0 115 -76z" />
    <glyph glyph-name="bar" unicode="|" horiz-adv-x="455" 
d="M350 1454v-1356q0 -54 -33.5 -88.5t-89.5 -34.5q-54 0 -88.5 34.5t-34.5 88.5v1356q0 56 33.5 89.5t89.5 33.5q58 0 90.5 -33.5t32.5 -89.5z" />
    <glyph glyph-name="braceleft" unicode="{" horiz-adv-x="682" 
d="M176 -47v397q0 82 -25.5 108.5t-72.5 26.5q-46 0 -72 29.5t-26 69.5t25 69t73 29q47 0 72.5 26.5t25.5 108.5v397q0 138 68 203.5t205 65.5h126q41 0 67 -23.5t26 -68.5q0 -44 -26 -68.5t-67 -24.5h-51q-90 0 -90 -118v-387q0 -123 -65.5 -161t-155.5 -46v-4
q88 -7 154.5 -46.5t66.5 -160.5v-387q0 -119 90 -119h51q41 0 67 -23.5t26 -68.5t-26 -68.5t-67 -23.5h-126q-136 0 -204.5 65.5t-68.5 202.5z" />
    <glyph glyph-name="braceright" unicode="}" horiz-adv-x="682" 
d="M506 1214v-397q0 -82 25.5 -108.5t72.5 -26.5q49 0 73.5 -28.5t24.5 -69.5t-25.5 -70t-72.5 -29t-72.5 -26.5t-25.5 -108.5v-397q0 -138 -68.5 -203t-204.5 -65h-127q-40 0 -66 23.5t-26 68.5t26 68.5t66 23.5h52q90 0 90 119v387q0 120 66.5 160t154.5 47v4
q-90 8 -155.5 46.5t-65.5 160.5v387q0 118 -90 118h-52q-40 0 -66 24.5t-26 68.5q0 45 26 68.5t66 23.5h127q137 0 205 -65t68 -204z" />
    <glyph glyph-name="bracketleft" unicode="[" horiz-adv-x="569" 
d="M90 -168v1503q0 67 41.5 107.5t108.5 40.5h204q49 0 79 -28.5t30 -88.5t-30 -88.5t-79 -28.5h-96v-1331h96q49 0 79 -28.5t30 -88.5t-30 -88t-79 -28h-204q-67 0 -108.5 39.5t-41.5 107.5z" />
    <glyph glyph-name="bracketright" unicode="]" horiz-adv-x="569" 
d="M479 1335v-1503q0 -68 -40.5 -107.5t-108.5 -39.5h-205q-49 0 -79 28.5t-30 87.5q0 58 30 87.5t79 29.5h96v1331h-96q-49 0 -79 29.5t-30 87.5t30 87.5t79 29.5h205q68 0 108.5 -40.5t40.5 -107.5z" />
    <glyph glyph-name="breve" unicode="&#x2d8;" horiz-adv-x="455" 
d="M-90 1436q0 49 22 86t70 37q53 0 83 -35t59.5 -70t82.5 -35q37 0 57.5 17t45.5 51.5t52 53t71 18.5q25 0 46.5 -19.5t33.5 -47.5t12 -56q0 -69 -51.5 -117.5t-125 -72t-141.5 -23.5q-66 0 -141.5 23t-125.5 70.5t-50 119.5z" />
    <glyph glyph-name="brokenbar" unicode="&#xa6;" horiz-adv-x="455" 
d="M104 98v398q0 55 33.5 88.5t89.5 33.5q38 0 65.5 -15t42.5 -42.5t15 -64.5v-398q0 -54 -33.5 -88.5t-89.5 -34.5q-54 0 -88.5 34.5t-34.5 88.5zM104 1057v397q0 56 33.5 89.5t89.5 33.5q58 0 90.5 -33.5t32.5 -89.5v-397q0 -56 -32.5 -89.5t-90.5 -33.5q-56 0 -89.5 33.5
t-33.5 89.5z" />
    <glyph glyph-name="bullet" unicode="&#x2022;" horiz-adv-x="1024" 
d="M147 729q0 99 49 183t133 133t183 49q76 0 141 -27.5t117 -79.5t79.5 -117t27.5 -141q0 -99 -49.5 -183t-133.5 -132.5t-182 -48.5t-182 48.5t-133.5 132.5t-49.5 183z" />
    <glyph glyph-name="c" unicode="c" horiz-adv-x="948" 
d="M930 928q0 -50 -32 -96t-81 -46q-32 0 -106.5 29t-126.5 29q-79 0 -135.5 -42.5t-84.5 -111.5t-28 -147q0 -118 67 -207.5t181 -89.5q31 0 67 11.5t87.5 30.5t64.5 19q34 0 63 -17.5t46.5 -47t17.5 -64.5q0 -69 -63.5 -115t-149.5 -67t-148 -21q-153 0 -274 76.5
t-187.5 207t-66.5 284.5q0 110 38.5 213.5t109.5 184.5t169 127t211 46q68 0 153.5 -18.5t146.5 -60t61 -107.5z" />
    <glyph glyph-name="caron" unicode="&#x2c7;" horiz-adv-x="455" 
d="M227 1212l-217 88q-94 37 -94 125q0 50 38 90.5t87 40.5q20 0 106 -36l80 -35l80 35q88 36 107 36q49 0 87 -40.5t38 -90.5q0 -46 -23.5 -75t-71.5 -50z" />
    <glyph glyph-name="ccedilla" unicode="&#xe7;" horiz-adv-x="948" 
d="M930 928q0 -50 -32 -96t-81 -46q-32 0 -106.5 29t-126.5 29q-79 0 -135.5 -42.5t-84.5 -111.5t-28 -147q0 -118 67 -207.5t181 -89.5q31 0 67 11.5t87.5 30.5t64.5 19q34 0 63 -17.5t46.5 -47t17.5 -64.5q0 -69 -63.5 -115t-149.5 -67t-148 -21q-153 0 -274 76.5
t-187.5 207t-66.5 284.5q0 110 38.5 213.5t109.5 184.5t169 127t211 46q68 0 153.5 -18.5t146.5 -60t61 -107.5zM508 0h123l-80 -104q1 0 17.5 3t27.5 3q68 0 111 -42t43 -114q0 -91 -70.5 -141.5t-157.5 -50.5q-67 0 -125.5 22t-58.5 80q0 24 13.5 38.5t35.5 14.5
q12 0 44.5 -9.5t54.5 -10.5q67 0 67 57q0 37 -17.5 47t-51.5 10q-43 5 -56.5 11t-13.5 36q0 22 45 82z" />
    <glyph glyph-name="cedilla" unicode="&#xb8;" horiz-adv-x="455" 
d="M260 0h123l-80 -104q1 0 17.5 3t27.5 3q68 0 111 -42t43 -114q0 -91 -70.5 -141.5t-157.5 -50.5q-67 0 -125.5 22t-58.5 80q0 24 13.5 38.5t35.5 14.5q12 0 44.5 -9.5t54.5 -10.5q67 0 67 57q0 37 -17.5 47t-51.5 10q-43 5 -56.5 11t-13.5 36q0 22 45 82z" />
    <glyph glyph-name="cent" unicode="&#xa2;" horiz-adv-x="948" 
d="M487 270v551q-74 -30 -112.5 -107t-38.5 -171q0 -89 40 -165t111 -108zM598 842v-596q43 4 118.5 32.5t86.5 28.5q34 0 63 -17.5t46.5 -47t17.5 -64.5q0 -96 -106.5 -146.5t-225.5 -56.5v-47q0 -31 -2.5 -50.5t-15 -32.5t-37.5 -13q-37 0 -46.5 24.5t-9.5 71.5v56
q-136 19 -237.5 97t-155 200.5t-53.5 269.5q0 140 55.5 259t157.5 197.5t233 98.5v57q0 52 9 74.5t47 22.5q37 0 46 -22.5t9 -74.5v-49q65 -2 142.5 -21t133.5 -61t56 -104q0 -52 -32 -99t-81 -47q-32 0 -103 28.5t-116 31.5z" />
    <glyph glyph-name="circumflex" unicode="&#x2c6;" horiz-adv-x="455" 
d="M10 1477l217 88l217 -88q48 -19 71.5 -48.5t23.5 -76.5q0 -50 -38 -90.5t-87 -40.5q-19 0 -107 36l-80 35l-80 -35q-86 -36 -106 -36q-49 0 -87 40.5t-38 90.5q0 88 94 125z" />
    <glyph glyph-name="colon" unicode=":" horiz-adv-x="549" 
d="M115 793q0 66 46.5 112.5t112.5 46.5t113 -46t47 -113q0 -66 -47 -113t-113 -47t-112.5 47.5t-46.5 112.5zM115 135q0 65 46.5 112.5t112.5 47.5t113 -47t47 -113t-47 -113t-113 -47t-112.5 47.5t-46.5 112.5z" />
    <glyph glyph-name="comma" unicode="," horiz-adv-x="549" 
d="M408 102l-172 -307q-17 -33 -53 -51t-64 -18q-57 0 -98 39.5t-41 95.5q0 28 24 82l170 307q19 33 54.5 51t64.5 18q56 0 98.5 -40t42.5 -95q0 -23 -26 -82z" />
    <glyph glyph-name="copyright" unicode="&#xa9;" horiz-adv-x="1638" 
d="M1098 797q-27 0 -44 7t-29.5 20t-21 30.5t-16.5 34.5q-20 34 -53.5 56t-108.5 22q-91 0 -138.5 -63.5t-47.5 -174.5t47.5 -174t138.5 -63q73 0 107 21.5t55 55.5q27 55 43.5 74t67.5 19q49 -9 65.5 -31.5t16.5 -79.5q0 -48 -46 -106t-127 -98t-182 -40
q-124 0 -215.5 54.5t-141.5 151t-50 216.5t50 216.5t141.5 151t215.5 54.5q101 0 182 -40t127 -98t46 -106q0 -55 -16 -78t-66 -32zM66 729q0 205 101 378t274 274.5t378 101.5q153 0 291.5 -58t242.5 -162t162 -242.5t58 -291.5q0 -205 -101.5 -378t-274.5 -274.5
t-378 -101.5t-378 101.5t-274 274.5t-101 378zM250 729q0 -115 44 -219.5t122.5 -183t183 -122.5t219.5 -44q116 0 222 45t183 122t121 182.5t44 219.5q0 115 -44.5 221t-121 182.5t-183 121t-221.5 44.5q-114 0 -219.5 -44t-182.5 -121t-122 -182.5t-45 -221.5z" />
    <glyph glyph-name="currency" unicode="&#xa4;" horiz-adv-x="1229" 
d="M614 223q-85 0 -162 24.5t-128 69.5l-117 -120q-21 -25 -60 -25q-45 0 -69.5 33t-24.5 74q0 15 9 25.5t20 21.5l119 118q-31 35 -52 80t-32 98t-11 107q0 86 24.5 165t70.5 124l-119 119q-25 25 -29 47q0 45 25 73q24 33 69 33q39 0 60 -24l117 -117q49 40 129 65t161 25
q82 0 163.5 -25.5t127.5 -64.5l117 117q21 24 59 24q46 0 70 -33q25 -35 25 -73q0 -18 -29 -47l-119 -119q47 -46 70.5 -122t23.5 -167q0 -84 -25 -159.5t-69 -125.5l119 -118q11 -11 20 -21t9 -26q0 -39 -25 -74q-24 -33 -70 -33q-38 0 -59 25l-117 120q-49 -45 -127 -69.5
t-164 -24.5zM614 1006q-112 0 -187 -79.5t-75 -197.5q0 -117 75 -194.5t187 -77.5q113 0 188 77.5t75 194.5q0 118 -74.5 197.5t-188.5 79.5z" />
    <glyph glyph-name="d" unicode="d" 
d="M1092 1413v-1261q0 -48 -19 -85.5t-53 -58t-76 -20.5q-119 0 -147 123q-41 -65 -115.5 -100.5t-155.5 -35.5q-141 0 -252.5 79t-172 208t-60.5 268q0 150 54 284t162.5 217t258.5 83q50 0 100 -11.5t95 -33.5t86 -57v401q0 73 40.5 118.5t106.5 45.5q43 0 76.5 -20.5
t52.5 -58t19 -85.5zM797 553q0 119 -60.5 205t-171.5 86q-72 0 -124.5 -44.5t-78.5 -113.5t-26 -143q0 -51 15 -105t44 -97.5t72.5 -69t97.5 -25.5q75 0 128 45t78.5 116.5t25.5 145.5z" />
    <glyph glyph-name="dagger" unicode="&#x2020;" horiz-adv-x="1290" 
d="M504 -305v1075h-336q-53 0 -85 34.5t-32 94.5t32 94.5t85 34.5h336v313q0 67 38.5 104.5t102.5 37.5t102.5 -37.5t38.5 -104.5v-313h336q53 0 85 -34.5t32 -94.5t-32 -94.5t-85 -34.5h-336v-1075q0 -44 -17.5 -76t-50 -48.5t-73.5 -16.5q-64 0 -102.5 37.5t-38.5 103.5z
" />
    <glyph glyph-name="daggerdbl" unicode="&#x2021;" horiz-adv-x="1290" 
d="M504 -305v317h-336q-53 0 -85 34.5t-32 94.5t32 94.5t85 34.5h336v500h-336q-53 0 -85 34.5t-32 94.5t32 94.5t85 34.5h336v313q0 67 38.5 104.5t102.5 37.5t102.5 -37.5t38.5 -104.5v-313h336q53 0 85 -34.5t32 -94.5t-32 -94.5t-85 -34.5h-336v-500h336q53 0 85 -34.5
t32 -94.5t-32 -94.5t-85 -34.5h-336v-317q0 -44 -17.5 -76t-50 -48.5t-73.5 -16.5q-64 0 -102.5 37.5t-38.5 103.5z" />
    <glyph glyph-name="degree" unicode="&#xb0;" horiz-adv-x="819" 
d="M240 1153q0 -69 50.5 -119.5t119.5 -50.5t119.5 50.5t50.5 119.5q0 44 -23 84t-63 63t-84 23q-70 0 -120 -50t-50 -120zM80 1153q0 90 44.5 165.5t119 120t166.5 44.5q68 0 127.5 -25.5t105 -70.5t71 -105.5t25.5 -128.5q0 -90 -44 -165.5t-119.5 -120t-165.5 -44.5
q-92 0 -166.5 44.5t-119 120t-44.5 165.5z" />
    <glyph glyph-name="dieresis" unicode="&#xa8;" horiz-adv-x="455" 
d="M305 1382q0 60 43 104t105 44q63 0 105 -43t42 -105q0 -63 -42 -105t-105 -42q-62 0 -105 43t-43 104zM-145 1382q0 62 42 105t105 43q62 0 105 -43t43 -105q0 -63 -43 -105t-105 -42q-63 0 -105 42t-42 105z" />
    <glyph glyph-name="divide" unicode="&#xf7;" horiz-adv-x="1229" 
d="M195 641h839q58 0 90.5 -33.5t32.5 -89.5t-32.5 -89.5t-90.5 -33.5h-839q-58 0 -90.5 33.5t-32.5 89.5t32.5 89.5t90.5 33.5zM455 94q0 65 46.5 112.5t112.5 47.5t113 -47t47 -113t-47 -113t-113 -47t-112.5 47.5t-46.5 112.5zM455 942q0 65 46.5 112.5t112.5 47.5
t113 -47t47 -113t-47 -113t-113 -47t-112.5 47.5t-46.5 112.5z" />
    <glyph glyph-name="dollar" unicode="$" horiz-adv-x="1100" 
d="M596 580v-299q61 14 97 59.5t36 105.5q0 88 -133 134zM485 946v234q-47 -13 -77.5 -45.5t-30.5 -79.5q0 -38 26.5 -62.5t81.5 -46.5zM485 272v342q-59 18 -147 47t-152 72t-102.5 113t-38.5 172q0 126 58.5 226.5t159 160.5t222.5 74v4v59q0 35 2.5 53.5t15 30.5t38.5 12
q37 0 46 -22t9 -74v-63q126 -4 242 -53.5t116 -147.5q0 -63 -38 -107.5t-99 -44.5q-38 0 -107 25.5t-114 30.5v-273q142 -41 235 -83t161.5 -132.5t68.5 -242.5q0 -100 -35.5 -184t-100.5 -145t-150 -97t-179 -43v-7v-59q0 -31 -2.5 -50.5t-15 -32.5t-37.5 -13
q-37 0 -46.5 24.5t-9.5 71.5v64q-98 2 -200 23t-174 71.5t-72 130.5q0 62 37.5 103.5t99.5 41.5q47 0 148.5 -35.5t160.5 -42.5z" />
    <glyph glyph-name="dotaccent" unicode="&#x2d9;" horiz-adv-x="455" 
d="M80 1382q0 62 42 105t105 43q62 0 105 -43t43 -105q0 -63 -43 -105t-105 -42q-63 0 -105 42t-42 105z" />
    <glyph glyph-name="dotlessi" unicode="&#x131;" horiz-adv-x="455" 
d="M80 152v786q0 73 40.5 118.5t106.5 45.5q43 0 76.5 -20.5t52.5 -58t19 -85.5v-786q0 -48 -19 -85.5t-53 -58t-76 -20.5q-66 0 -106.5 45.5t-40.5 118.5z" />
    <glyph glyph-name="e" unicode="e" horiz-adv-x="1100" 
d="M950 446h-628q15 -105 92 -159t186 -54q67 0 114 21t117.5 59.5t102.5 38.5q30 0 58.5 -18.5t45.5 -47.5t17 -61q0 -46 -42.5 -91t-113 -80.5t-159 -57t-167.5 -21.5q-161 0 -288 73.5t-196 203t-69 291.5q0 110 39.5 214t110 185t169 126.5t210.5 45.5
q115 0 214.5 -47.5t168.5 -125.5t108 -173.5t39 -189.5q0 -132 -129 -132zM315 643h469q-12 101 -74 163t-161 62q-95 0 -158 -63t-76 -162z" />
    <glyph glyph-name="eacute" unicode="&#xe9;" horiz-adv-x="1100" 
d="M950 446h-628q15 -105 92 -159t186 -54q67 0 114 21t117.5 59.5t102.5 38.5q30 0 58.5 -18.5t45.5 -47.5t17 -61q0 -46 -42.5 -91t-113 -80.5t-159 -57t-167.5 -21.5q-161 0 -288 73.5t-196 203t-69 291.5q0 110 39.5 214t110 185t169 126.5t210.5 45.5
q115 0 214.5 -47.5t168.5 -125.5t108 -173.5t39 -189.5q0 -132 -129 -132zM315 643h469q-12 101 -74 163t-161 62q-95 0 -158 -63t-76 -162zM373 1464l242 99q52 20 78 20q44 0 77 -41.5t33 -85.5q0 -91 -84 -121l-229 -90l-37.5 -13.5t-18 -5.5t-26.5 -1q-44 0 -76.5 46.5
t-32.5 102.5q0 52 58 82z" />
    <glyph glyph-name="ecircumflex" unicode="&#xea;" horiz-adv-x="1100" 
d="M950 446h-628q15 -105 92 -159t186 -54q67 0 114 21t117.5 59.5t102.5 38.5q30 0 58.5 -18.5t45.5 -47.5t17 -61q0 -46 -42.5 -91t-113 -80.5t-159 -57t-167.5 -21.5q-161 0 -288 73.5t-196 203t-69 291.5q0 110 39.5 214t110 185t169 126.5t210.5 45.5
q115 0 214.5 -47.5t168.5 -125.5t108 -173.5t39 -189.5q0 -132 -129 -132zM315 643h469q-12 101 -74 163t-161 62q-95 0 -158 -63t-76 -162zM334 1477l217 88l217 -88q48 -19 71.5 -48.5t23.5 -76.5q0 -50 -38 -90.5t-87 -40.5q-19 0 -107 36l-80 35l-80 -35
q-86 -36 -106 -36q-49 0 -87 40.5t-38 90.5q0 88 94 125z" />
    <glyph glyph-name="edieresis" unicode="&#xeb;" horiz-adv-x="1100" 
d="M950 446h-628q15 -105 92 -159t186 -54q67 0 114 21t117.5 59.5t102.5 38.5q30 0 58.5 -18.5t45.5 -47.5t17 -61q0 -46 -42.5 -91t-113 -80.5t-159 -57t-167.5 -21.5q-161 0 -288 73.5t-196 203t-69 291.5q0 110 39.5 214t110 185t169 126.5t210.5 45.5
q115 0 214.5 -47.5t168.5 -125.5t108 -173.5t39 -189.5q0 -132 -129 -132zM315 643h469q-12 101 -74 163t-161 62q-95 0 -158 -63t-76 -162zM629 1382q0 60 43 104t105 44q63 0 105 -43t42 -105q0 -63 -42 -105t-105 -42q-62 0 -105 43t-43 104zM179 1382q0 62 42 105
t105 43q62 0 105 -43t43 -105q0 -63 -43 -105t-105 -42q-63 0 -105 42t-42 105z" />
    <glyph glyph-name="egrave" unicode="&#xe8;" horiz-adv-x="1100" 
d="M950 446h-628q15 -105 92 -159t186 -54q67 0 114 21t117.5 59.5t102.5 38.5q30 0 58.5 -18.5t45.5 -47.5t17 -61q0 -46 -42.5 -91t-113 -80.5t-159 -57t-167.5 -21.5q-161 0 -288 73.5t-196 203t-69 291.5q0 110 39.5 214t110 185t169 126.5t210.5 45.5
q115 0 214.5 -47.5t168.5 -125.5t108 -173.5t39 -189.5q0 -132 -129 -132zM315 643h469q-12 101 -74 163t-161 62q-95 0 -158 -63t-76 -162zM488 1563l242 -99l16 -8q25 -13 41 -35t16 -47q0 -55 -32 -102t-76 -47q-21 0 -26.5 1t-16 5t-39.5 14l-230 90q-84 31 -84 121
q0 43 33.5 85t77.5 42q26 0 78 -20z" />
    <glyph glyph-name="eight" unicode="8" 
d="M588 668q-87 0 -137 -58t-50 -147q0 -84 49 -144.5t138 -60.5q84 0 135 60.5t51 144.5q0 97 -50 151t-136 54zM588 -25q-141 0 -256.5 59.5t-182.5 167t-67 240.5q0 79 27.5 147t78 121t113.5 87q-156 112 -156 293q0 87 34.5 160.5t94 125t140 79.5t174.5 28
q90 0 170 -27t142.5 -79.5t97 -125.5t34.5 -161q0 -89 -41.5 -167.5t-116.5 -125.5q106 -53 163 -145t57 -210q0 -136 -68.5 -243t-184 -165.5t-253.5 -58.5zM588 1212q-70 0 -109 -43t-39 -112q0 -70 39 -113t109 -43q69 0 109 43t40 113q0 69 -39.5 112t-109.5 43z" />
    <glyph glyph-name="ellipsis" unicode="&#x2026;" horiz-adv-x="2048" 
d="M182 135q0 66 47 113t113 47t113 -47t47 -113t-47 -113t-113 -47t-113 47t-47 113zM864 135q0 66 47 113t113 47t113 -47t47 -113t-47 -113t-113 -47t-113 47t-47 113zM1546 135q0 66 47 113t113 47t113 -47t47 -113t-47 -113t-113 -47t-113 47t-47 113z" />
    <glyph glyph-name="endash" unicode="&#x2014;" horiz-adv-x="2048" 
d="M0 717h2048q58 0 90.5 -33.5t32.5 -89.5t-32.5 -89.5t-90.5 -33.5h-2048q-58 0 -90.5 33.5t-32.5 89.5t32.5 89.5t90.5 33.5z" />
    <glyph glyph-name="emdash" unicode="&#x2013;" horiz-adv-x="1024" 
d="M123 717h778q58 0 90.5 -33.5t32.5 -89.5t-32.5 -89.5t-90.5 -33.5h-778q-58 0 -90.5 33.5t-32.5 89.5t32.5 89.5t90.5 33.5z" />
    <glyph glyph-name="equal" unicode="=" horiz-adv-x="1229" 
d="M195 870h839q38 0 65.5 -15t42.5 -42.5t15 -64.5q0 -56 -32.5 -89.5t-90.5 -33.5h-839q-58 0 -90.5 33.5t-32.5 89.5q0 55 32.5 88.5t90.5 33.5zM195 412h839q58 0 90.5 -34.5t32.5 -88.5q0 -56 -32.5 -89.5t-90.5 -33.5h-839q-58 0 -90.5 33.5t-32.5 89.5
q0 54 32.5 88.5t90.5 34.5z" />
    <glyph glyph-name="eth" unicode="&#xf0;" horiz-adv-x="1139" 
d="M569 -25q-153 0 -274 76.5t-187.5 207t-66.5 284.5q0 97 37 191.5t104 169.5t158 119t197 44q151 0 231 -88l4 4q-81 180 -229 268l-135 -71q-74 -38 -93.5 -47t-44.5 -9q-27 0 -49 19.5t-22 54.5q0 24 11.5 42t26 27t42.5 23l102 53q-72 32 -107.5 55t-35.5 64
q0 67 38 97t121 30q62 0 127 -26t140 -70l163 88q43 23 74 23t51.5 -22.5t20.5 -55.5q0 -29 -18 -47t-64 -41l-107 -58q115 -108 184 -226.5t99.5 -255.5t30.5 -306q0 -134 -38 -246.5t-107.5 -195.5t-168 -129t-215.5 -46zM567 809q-68 0 -121 -38.5t-81.5 -100.5
t-28.5 -127q0 -75 26.5 -143.5t79 -111t127.5 -42.5q76 0 128.5 42.5t79 111t26.5 143.5q-2 70 -30 131.5t-80.5 98t-125.5 36.5z" />
    <glyph glyph-name="exclam" unicode="!" horiz-adv-x="684" 
d="M195 555v788q0 64 41 102t106 38q63 0 105 -39t42 -101v-788q0 -63 -42 -101t-105 -38q-65 0 -106 38t-41 101zM342 -25q-66 0 -113 47t-47 113t47 113t113 47t113 -47t47 -113t-47 -113t-113 -47z" />
    <glyph glyph-name="exclamdown" unicode="&#xa1;" horiz-adv-x="684" 
d="M195 -254v789q0 63 41 101t106 38q63 0 105 -39t42 -100v-789q0 -63 -42 -101t-105 -38q-65 0 -106 38t-41 101zM342 1114q66 0 113 -47t47 -113t-47.5 -112.5t-112.5 -46.5t-112.5 46.5t-47.5 112.5t47 113t113 47z" />
    <glyph glyph-name="f" unicode="f" horiz-adv-x="606" 
d="M152 152v679h-66q-58 0 -93.5 35.5t-35.5 94.5q0 55 37 92t92 37h66v151q0 160 85.5 248t223.5 88q88 0 146.5 -31t58.5 -102q0 -125 -121 -125q-49 0 -74 -18t-25 -91v-120h93q149 0 149 -129q0 -130 -149 -130h-93v-679q0 -73 -40.5 -118.5t-106.5 -45.5t-106.5 45.5
t-40.5 118.5z" />
    <glyph glyph-name="fi" unicode="&#xf001;" horiz-adv-x="1063" 
d="M152 152v679h-66q-58 0 -93.5 35.5t-35.5 94.5q0 55 37 92t92 37h66v151q0 160 85.5 248t223.5 88q71 0 125.5 -32t54.5 -101q0 -125 -109 -125q-46 0 -66 -17t-20 -92v-120h72q144 0 144 -129q0 -62 -17 -90t-45 -34t-82 -6h-72v-679q0 -73 -40.5 -118.5t-106.5 -45.5
t-106.5 45.5t-40.5 118.5zM688 152v786q0 72 41 118t107 46t106.5 -45.5t40.5 -118.5v-786q0 -73 -40.5 -118.5t-106.5 -45.5t-107 46t-41 118zM836 1544q44 0 82 -22.5t60.5 -59.5t22.5 -80q0 -69 -48.5 -119.5t-116.5 -50.5q-65 0 -115.5 52t-50.5 118q0 63 50.5 112.5
t115.5 49.5z" />
    <glyph glyph-name="five" unicode="5" 
d="M512 1176l-31 -218q94 21 154 21q120 0 217.5 -58.5t152 -158.5t54.5 -219q0 -128 -34.5 -232t-104 -179.5t-171 -116t-233.5 -40.5q-83 0 -189 33t-183.5 96.5t-77.5 145.5q0 37 18.5 69.5t51 51t69.5 18.5q34 0 104 -43.5t111 -65.5t102 -22q101 0 159 81t58 187
q0 59 -22.5 107t-66.5 74t-107 26q-62 0 -128 -33.5t-114 -33.5q-54 0 -87.5 32.5t-33.5 63.5q0 14 2 30.5t4 38.5l52 433q10 64 22 100.5t30 56.5t43 28.5t64 8.5h494q68 0 108.5 -36.5t40.5 -92.5q0 -93 -46.5 -123t-96.5 -30h-385z" />
    <glyph glyph-name="fl" unicode="&#xf002;" horiz-adv-x="1063" 
d="M152 152v679h-66q-58 0 -93.5 35.5t-35.5 94.5q0 55 37 92t92 37h66v151q0 160 85.5 248t223.5 88q71 0 125.5 -32t54.5 -101q0 -125 -109 -125q-46 0 -66 -17t-20 -92v-120h72q144 0 144 -129q0 -62 -17 -90t-45 -34t-82 -6h-72v-679q0 -73 -40.5 -118.5t-106.5 -45.5
t-106.5 45.5t-40.5 118.5zM688 152v1261q0 72 41 118t107 46t106.5 -45.5t40.5 -118.5v-1261q0 -73 -40.5 -118.5t-106.5 -45.5t-107 46t-41 118z" />
    <glyph glyph-name="florin" unicode="&#x192;" 
d="M453 866l59 310q26 152 108.5 229.5t229.5 77.5q82 0 141.5 -31t59.5 -109q0 -67 -43 -92.5t-117 -25.5q-42 0 -63 -28t-31 -83l-45 -248h71q68 0 106 -32.5t38 -94.5q0 -73 -48.5 -102t-146.5 -29h-67l-130 -708q-28 -164 -109 -255t-239 -91q-56 0 -100 10.5t-71 39.5
t-27 83q0 82 46.5 103.5t114.5 21.5t93 127l125 669h-52q-67 0 -103 35.5t-36 89.5q0 65 42.5 99t111.5 34h82z" />
    <glyph glyph-name="four" unicode="4" 
d="M670 322h-494q-69 0 -106 37.5t-37 82.5q0 43 28 90l459 832q36 64 83 91.5t126 27.5q63 0 116.5 -28t86.5 -87.5t33 -146.5v-629h34q39 0 72.5 -16.5t52.5 -48t19 -70.5t-19 -70.5t-52.5 -48t-72.5 -16.5h-34v-175q0 -82 -34.5 -120.5t-113.5 -38.5q-77 0 -112 38.5
t-35 120.5v175zM670 592v571h-4l-277 -571h281z" />
    <glyph glyph-name="fraction" unicode="&#x2044;" horiz-adv-x="340" 
d="M-266 152l678 1278q19 38 38.5 51.5t55.5 13.5q29 0 58 -15t46 -41.5t17 -58.5q0 -30 -17 -61l-688 -1288q-29 -41 -43.5 -54.5t-48.5 -13.5q-42 0 -79.5 34.5t-37.5 78.5q0 31 21 76z" />
    <glyph glyph-name="g" unicode="g" 
d="M1092 938v-852q0 -172 -71 -292t-199.5 -180t-297.5 -60q-70 0 -184 24t-197.5 74t-83.5 123q0 42 38.5 85.5t80.5 43.5q39 0 122 -32t127.5 -46t119.5 -14q72 0 129 27.5t89 80t32 125.5v70h-4q-96 -140 -297 -140q-113 0 -198 45t-143 126t-86 182t-28 213
q0 111 33.5 214t98 184.5t155 128t198.5 46.5q52 0 104.5 -15.5t96 -46t70.5 -73.5q28 123 147 123q43 0 76.5 -20.5t52.5 -58t19 -85.5zM797 537q0 74 -25.5 145.5t-78.5 116.5t-128 45q-71 0 -124 -44t-79 -111.5t-26 -141.5q0 -82 26 -150t78 -109.5t125 -41.5
q111 0 171.5 85.5t60.5 205.5z" />
    <glyph glyph-name="germandbls" unicode="&#xdf;" horiz-adv-x="1139" 
d="M80 152v905q0 147 54.5 265.5t161.5 186.5t257 68q123 0 224.5 -53t159.5 -149.5t58 -219.5q0 -88 -34.5 -167t-104.5 -122q84 -25 141 -86t85 -143.5t28 -171.5q0 -116 -56.5 -229.5t-159 -187t-232.5 -73.5q-89 0 -134 42t-45 106q0 66 41 90t127 43q67 14 115.5 72
t48.5 137q0 116 -45.5 162.5t-133.5 69t-126.5 46.5t-38.5 99q0 65 28.5 87.5t89.5 45t92.5 58.5t31.5 122q0 58 -45 105t-115 47q-106 0 -142 -68t-36 -182v-905q0 -48 -19 -85.5t-53 -58t-76 -20.5q-66 0 -106.5 45.5t-40.5 118.5z" />
    <glyph glyph-name="grave" unicode="`" horiz-adv-x="455" 
d="M164 1563l242 -99l16 -8q25 -13 41 -35t16 -47q0 -55 -32 -102t-76 -47q-21 0 -26.5 1t-16 5t-39.5 14l-230 90q-84 31 -84 121q0 43 33.5 85t77.5 42q26 0 78 -20z" />
    <glyph glyph-name="greater" unicode="&#x3e;" horiz-adv-x="1229" 
d="M145 233l682 285l-682 285q-73 31 -73 104q0 60 28.5 94.5t69.5 34.5q39 0 102 -30l809 -371q76 -34 76 -117t-76 -117l-809 -372q-63 -29 -102 -29q-41 0 -69.5 34.5t-28.5 94.5q0 73 73 104z" />
    <glyph glyph-name="guillemotleft" unicode="&#xab;" horiz-adv-x="1024" 
d="M543 698l198 281q33 35 88 35t87 -33t32 -80t-22 -78l-162 -248l162 -243q22 -33 22 -70q0 -55 -34 -92t-89 -37q-67 0 -102 51l-211 326q-18 26 -18 74q0 49 49 114zM125 698l199 281q32 35 88 35q54 0 86 -33t32 -80t-22 -78l-162 -248l162 -243q22 -33 22 -70
q0 -55 -34 -92t-88 -37q-66 0 -103 51l-211 326q-18 26 -18 74q0 49 49 114z" />
    <glyph glyph-name="guillemotright" unicode="&#xbb;" horiz-adv-x="1024" 
d="M516 324l162 251l-162 240q-22 33 -22 70q0 55 33.5 92t88.5 37q66 0 103 -51l211 -326q18 -27 18 -74q0 -49 -49 -114l-199 -281q-30 -35 -88 -35q-54 0 -86 33t-32 80t22 78zM98 324l162 251l-162 240q-22 33 -22 70q0 55 33.5 92t89.5 37q67 0 102 -51l211 -326
q18 -27 18 -74q0 -49 -49 -114l-198 -281q-32 -35 -88 -35q-55 0 -87 33t-32 80t22 78z" />
    <glyph glyph-name="guilsinglleft" unicode="&#x2039;" horiz-adv-x="606" 
d="M346 575l162 -243q22 -33 22 -70q0 -55 -34 -92t-88 -37q-66 0 -103 51l-211 326q-18 26 -18 74q0 49 49 114l199 281q32 35 88 35q54 0 86 -33t32 -80t-22 -78z" />
    <glyph glyph-name="guilsinglright" unicode="&#x203a;" horiz-adv-x="606" 
d="M98 324l162 247l-162 244q-22 33 -22 70q0 55 33.5 92t89.5 37q67 0 102 -51l211 -326q18 -27 18 -74q0 -49 -49 -114l-198 -281q-32 -35 -88 -35q-55 0 -87 33t-32 80t22 78z" />
    <glyph glyph-name="h" unicode="h" horiz-adv-x="1139" 
d="M84 152v1261q0 73 40.5 118.5t106.5 45.5q43 0 76.5 -20.5t52.5 -58t19 -85.5v-401h4q42 52 116.5 77t151.5 25q116 0 208 -47.5t144 -137t52 -212.5v-565q0 -48 -19 -85.5t-53 -58t-76 -20.5q-66 0 -106.5 45.5t-40.5 118.5v514q0 99 -53.5 150.5t-139.5 51.5
q-58 0 -101 -26.5t-65 -71.5t-22 -104v-514q0 -48 -19 -85.5t-53 -58t-76 -20.5q-66 0 -106.5 45.5t-40.5 118.5z" />
    <glyph glyph-name="hungarumlaut" unicode="&#x2dd;" horiz-adv-x="455" 
d="M-236 1464l242 99q52 20 78 20q44 0 77.5 -41t33.5 -86q0 -90 -84 -121l-230 -90q-29 -10 -39.5 -14.5t-16 -5t-26.5 -0.5q-43 0 -75.5 47t-32.5 102q0 23 15.5 45.5t41.5 36.5zM334 1464l241 99q52 20 78 20q45 0 78 -41.5t33 -85.5q0 -90 -84 -121l-229 -90
l-37.5 -13.5t-18 -5.5t-26.5 -1q-44 0 -76.5 47t-32.5 102q0 24 16 46.5t41 35.5z" />
    <glyph glyph-name="hyphen" unicode="-" horiz-adv-x="797" 
d="M180 723h436q56 -4 86.5 -39t30.5 -92q0 -53 -30.5 -88t-86.5 -39h-436q-56 4 -86.5 38.5t-30.5 88.5q0 56 30.5 91.5t86.5 39.5z" />
    <glyph glyph-name="i" unicode="i" horiz-adv-x="455" 
d="M80 152v786q0 73 40.5 118.5t106.5 45.5q43 0 76.5 -20.5t52.5 -58t19 -85.5v-786q0 -48 -19 -85.5t-53 -58t-76 -20.5q-66 0 -106.5 45.5t-40.5 118.5zM227 1544q44 0 82 -23t61 -60.5t23 -78.5q0 -69 -48.5 -119.5t-117.5 -50.5q-65 0 -115.5 52t-50.5 118
q0 63 50.5 112.5t115.5 49.5z" />
    <glyph glyph-name="iacute" unicode="&#xed;" horiz-adv-x="455" 
d="M80 152v786q0 73 40.5 118.5t106.5 45.5q43 0 76.5 -20.5t52.5 -58t19 -85.5v-786q0 -48 -19 -85.5t-53 -58t-76 -20.5q-66 0 -106.5 45.5t-40.5 118.5zM49 1464l242 99q52 20 78 20q44 0 77 -41.5t33 -85.5q0 -91 -84 -121l-229 -90l-37.5 -13.5t-18 -5.5t-26.5 -1
q-44 0 -76.5 46.5t-32.5 102.5q0 52 58 82z" />
    <glyph glyph-name="icircumflex" unicode="&#xee;" horiz-adv-x="455" 
d="M80 152v786q0 73 40.5 118.5t106.5 45.5q43 0 76.5 -20.5t52.5 -58t19 -85.5v-786q0 -48 -19 -85.5t-53 -58t-76 -20.5q-66 0 -106.5 45.5t-40.5 118.5zM10 1477l217 88l217 -88q48 -19 71.5 -48.5t23.5 -76.5q0 -50 -38 -90.5t-87 -40.5q-19 0 -107 36l-80 35l-80 -35
q-86 -36 -106 -36q-49 0 -87 40.5t-38 90.5q0 88 94 125z" />
    <glyph glyph-name="idieresis" unicode="&#xef;" horiz-adv-x="455" 
d="M80 152v786q0 73 40.5 118.5t106.5 45.5q43 0 76.5 -20.5t52.5 -58t19 -85.5v-786q0 -48 -19 -85.5t-53 -58t-76 -20.5q-66 0 -106.5 45.5t-40.5 118.5zM305 1382q0 60 43 104t105 44q63 0 105 -43t42 -105q0 -63 -42 -105t-105 -42q-62 0 -105 43t-43 104zM-145 1382
q0 62 42 105t105 43q62 0 105 -43t43 -105q0 -63 -43 -105t-105 -42q-63 0 -105 42t-42 105z" />
    <glyph glyph-name="igrave" unicode="&#xec;" horiz-adv-x="455" 
d="M80 152v786q0 73 40.5 118.5t106.5 45.5q43 0 76.5 -20.5t52.5 -58t19 -85.5v-786q0 -48 -19 -85.5t-53 -58t-76 -20.5q-66 0 -106.5 45.5t-40.5 118.5zM164 1563l242 -99l16 -8q25 -13 41 -35t16 -47q0 -55 -32 -102t-76 -47q-21 0 -26.5 1t-16 5t-39.5 14l-230 90
q-84 31 -84 121q0 43 33.5 85t77.5 42q26 0 78 -20z" />
    <glyph glyph-name="j" unicode="j" horiz-adv-x="455" 
d="M80 -283v1221q0 73 40.5 118.5t106.5 45.5q43 0 76.5 -20.5t52.5 -58t19 -85.5v-1221q0 -46 -19 -84t-53 -58.5t-76 -20.5q-66 0 -106.5 44.5t-40.5 118.5zM227 1544q44 0 82 -23t61 -60.5t23 -78.5q0 -69 -48.5 -119.5t-117.5 -50.5q-65 0 -115.5 52t-50.5 118
q0 63 50.5 112.5t115.5 49.5z" />
    <glyph glyph-name="k" unicode="k" horiz-adv-x="1024" 
d="M84 152v1261q0 73 40.5 118.5t106.5 45.5q43 0 76.5 -20.5t52.5 -58t19 -85.5v-688l323 313q68 64 134 64q53 0 89 -41t36 -92q0 -64 -58 -117l-262 -234l346 -405q37 -42 37 -98q0 -59 -40.5 -99.5t-98.5 -40.5q-38 0 -70 21.5t-72 69.5l-360 444h-4v-358
q0 -48 -19 -85.5t-53 -58t-76 -20.5q-66 0 -106.5 45.5t-40.5 118.5z" />
    <glyph glyph-name="l" unicode="l" horiz-adv-x="455" 
d="M80 152v1261q0 73 40.5 118.5t106.5 45.5q43 0 76.5 -20.5t52.5 -58t19 -85.5v-1261q0 -48 -19 -85.5t-53 -58t-76 -20.5q-66 0 -106.5 45.5t-40.5 118.5z" />
    <glyph glyph-name="less" unicode="&#x3c;" horiz-adv-x="1229" 
d="M401 518l682 -285q74 -31 74 -104q0 -60 -28.5 -94.5t-69.5 -34.5q-39 0 -103 29l-809 372q-75 33 -75 117t75 117l809 371q64 30 103 30q41 0 69.5 -34.5t28.5 -94.5q0 -73 -74 -104z" />
    <glyph glyph-name="logicalnot" unicode="&#xac;" horiz-adv-x="1229" 
d="M195 870h839q38 0 65.5 -15t42.5 -42.5t15 -64.5v-465q0 -56 -32.5 -89.5t-90.5 -33.5t-90.5 33.5t-32.5 89.5v342h-716q-58 0 -90.5 33.5t-32.5 89.5q0 55 32.5 88.5t90.5 33.5z" />
    <glyph glyph-name="lslash" unicode="&#x142;" horiz-adv-x="455" 
d="M80 152v380l-10 -10q-53 -51 -97 -51q-38 0 -63 29t-25 69q0 41 43 84l152 152v608q0 73 40.5 118.5t106.5 45.5q43 0 76.5 -20.5t52.5 -58t19 -85.5v-323l10 10q32 30 52.5 42.5t49.5 12.5q38 0 60 -26t22 -66q0 -32 -10.5 -53t-32.5 -41l-151 -152v-665
q0 -48 -19 -85.5t-53 -58t-76 -20.5q-66 0 -106.5 45.5t-40.5 118.5z" />
    <glyph glyph-name="m" unicode="m" horiz-adv-x="1745" 
d="M84 152v786q0 73 40.5 118.5t106.5 45.5q57 0 92.5 -29t43.5 -82q112 123 274 123q186 0 305 -149q59 67 147 108t164 41q121 0 212 -45.5t141.5 -135.5t50.5 -216v-565q0 -48 -19 -85.5t-53 -58t-76 -20.5q-66 0 -106.5 45.5t-40.5 118.5v514q0 60 -20.5 105t-59.5 71
t-92 26q-80 0 -127 -55.5t-47 -146.5v-514q0 -48 -19 -85.5t-53 -58t-76 -20.5q-66 0 -106.5 45.5t-40.5 118.5v514q0 60 -20.5 105t-59.5 71t-92 26q-59 0 -98 -25.5t-57.5 -70.5t-18.5 -106v-514q0 -48 -19 -85.5t-53 -58t-76 -20.5q-66 0 -106.5 45.5t-40.5 118.5z" />
    <glyph glyph-name="macron" unicode="&#xaf;" horiz-adv-x="455" 
d="M37 1495h381q58 0 95.5 -32t37.5 -91q0 -58 -37 -90.5t-96 -32.5h-381q-59 0 -96 32.5t-37 90.5q0 59 37.5 91t95.5 32z" />
    <glyph glyph-name="minus" unicode="&#x2212;" horiz-adv-x="1229" 
d="M195 641h839q58 0 90.5 -33.5t32.5 -89.5t-32.5 -89.5t-90.5 -33.5h-839q-58 0 -90.5 33.5t-32.5 89.5t32.5 89.5t90.5 33.5z" />
    <glyph glyph-name="mu" unicode="&#xb5;" horiz-adv-x="1139" 
d="M84 -283v1221q0 73 40.5 118.5t106.5 45.5q43 0 76.5 -20.5t52.5 -58t19 -85.5v-526q0 -87 56.5 -139t133.5 -52q52 0 95 22.5t69.5 65.5t26.5 103v526q0 73 40.5 118.5t106.5 45.5q43 0 76.5 -20.5t52.5 -58t19 -85.5v-786q0 -48 -19 -85.5t-53 -58t-76 -20.5
q-65 0 -106 38.5t-41 102.5h-4q-29 -77 -83 -115.5t-106 -38.5q-47 0 -100.5 28.5t-83.5 74.5h-4v-361q0 -46 -19 -84t-53 -58.5t-76 -20.5q-66 0 -106.5 44.5t-40.5 118.5z" />
    <glyph glyph-name="multiply" unicode="&#xd7;" horiz-adv-x="1229" 
d="M360 940l254 -254l254 254q39 39 84 39q47 0 84 -39q39 -34 39 -90q0 -39 -39 -78l-254 -254l254 -254q39 -37 39 -84q0 -45 -39 -84q-35 -39 -90 -39q-37 0 -78 39l-254 254l-254 -254q-39 -39 -77 -39q-55 0 -90 39q-39 39 -39 84q0 47 39 84l253 254l-253 254
q-39 39 -39 78q0 56 39 90q37 39 83 39q47 0 84 -39z" />
    <glyph glyph-name="n" unicode="n" horiz-adv-x="1139" 
d="M84 152v786q0 73 40.5 118.5t106.5 45.5q57 0 92.5 -29t43.5 -80q86 121 284 121q116 0 208 -47.5t144 -137t52 -212.5v-565q0 -48 -19 -85.5t-53 -58t-76 -20.5q-66 0 -106.5 45.5t-40.5 118.5v514q0 99 -53.5 150.5t-139.5 51.5q-58 0 -101 -26.5t-65 -71.5t-22 -104
v-514q0 -48 -19 -85.5t-53 -58t-76 -20.5q-66 0 -106.5 45.5t-40.5 118.5z" />
    <glyph glyph-name="nine" unicode="9" 
d="M588 1483q152 0 269.5 -69.5t181 -185.5t63.5 -253q0 -142 -83 -323t-201.5 -342t-235.5 -271q-22 -21 -66 -49q-22 -15 -61 -15q-45 0 -95.5 49t-50.5 101q0 19 10 37.5t33 46.5q31 38 138 156t145 172l-4 4q-54 -25 -129 -25q-119 0 -217.5 63.5t-154.5 169.5t-56 226
q0 133 66 250t184.5 187.5t263.5 70.5zM588 762q86 0 140 60t54 153q0 90 -52 151.5t-142 61.5q-87 0 -141 -61t-54 -152q0 -87 51.5 -150t143.5 -63z" />
    <glyph glyph-name="ntilde" unicode="&#xf1;" horiz-adv-x="1139" 
d="M84 152v786q0 73 40.5 118.5t106.5 45.5q57 0 92.5 -29t43.5 -80q86 121 284 121q116 0 208 -47.5t144 -137t52 -212.5v-565q0 -48 -19 -85.5t-53 -58t-76 -20.5q-66 0 -106.5 45.5t-40.5 118.5v514q0 99 -53.5 150.5t-139.5 51.5q-58 0 -101 -26.5t-65 -71.5t-22 -104
v-514q0 -48 -19 -85.5t-53 -58t-76 -20.5q-66 0 -106.5 45.5t-40.5 118.5zM332 1239q-37 0 -70 34t-33 73q0 82 56.5 131t138.5 49q53 0 133.5 -25.5t95.5 -25.5q17 0 74 29.5t86 29.5q46 0 71 -33.5t25 -81.5q0 -73 -62.5 -125.5t-137.5 -52.5q-32 0 -121 25.5t-111 25.5
q-16 0 -28.5 -5.5t-36.5 -20.5t-40 -21t-40 -6z" />
    <glyph glyph-name="numbersign" unicode="#" horiz-adv-x="1229" 
d="M303 612l33 234h-176q-49 0 -74 29t-25 69t25 69t74 29h205l45 330q7 55 31.5 76.5t70.5 21.5q38 0 66 -22.5t28 -58.5q0 -17 -4 -50l-41 -297h197l45 330q7 55 31.5 76.5t70.5 21.5q38 0 66 -22.5t28 -58.5q0 -17 -4 -50l-41 -297h176q49 0 74 -29t25 -69t-25 -69
t-74 -29h-204l-33 -234h176q49 0 73.5 -28.5t24.5 -69.5t-24.5 -69.5t-73.5 -28.5h-205l-45 -330q-7 -54 -30.5 -76t-71.5 -22q-38 0 -66 23t-28 59q0 16 4 49l41 297h-197l-45 -330q-7 -54 -30.5 -76t-71.5 -22q-39 0 -67 23t-28 59q0 16 4 49l41 297h-176q-48 0 -73 29
t-25 69t25 69t73 29h205zM535 846l-33 -234h194l33 234h-194z" />
    <glyph glyph-name="o" unicode="o" horiz-adv-x="1139" 
d="M569 1114q114 0 212.5 -46.5t169 -126.5t109 -182t38.5 -216q0 -115 -38.5 -218.5t-107 -181t-168 -123t-215.5 -45.5q-153 0 -274 76.5t-187.5 207t-66.5 284.5q0 110 38.5 213.5t109.5 184.5t169 127t211 46zM569 844q-74 0 -127.5 -43.5t-79.5 -113.5t-26 -144
q0 -75 26.5 -143.5t79 -111t127.5 -42.5q76 0 128.5 42.5t79 111t26.5 143.5q0 74 -26 143.5t-79 113.5t-129 44z" />
    <glyph glyph-name="oacute" unicode="&#xf3;" horiz-adv-x="1139" 
d="M569 1114q114 0 212.5 -46.5t169 -126.5t109 -182t38.5 -216q0 -115 -38.5 -218.5t-107 -181t-168 -123t-215.5 -45.5q-153 0 -274 76.5t-187.5 207t-66.5 284.5q0 110 38.5 213.5t109.5 184.5t169 127t211 46zM569 844q-74 0 -127.5 -43.5t-79.5 -113.5t-26 -144
q0 -75 26.5 -143.5t79 -111t127.5 -42.5q76 0 128.5 42.5t79 111t26.5 143.5q0 74 -26 143.5t-79 113.5t-129 44zM391 1464l242 99q52 20 78 20q44 0 77 -41.5t33 -85.5q0 -91 -84 -121l-229 -90l-37.5 -13.5t-18 -5.5t-26.5 -1q-44 0 -76.5 46.5t-32.5 102.5q0 52 58 82z
" />
    <glyph glyph-name="ocircumflex" unicode="&#xf4;" horiz-adv-x="1139" 
d="M569 1114q114 0 212.5 -46.5t169 -126.5t109 -182t38.5 -216q0 -115 -38.5 -218.5t-107 -181t-168 -123t-215.5 -45.5q-153 0 -274 76.5t-187.5 207t-66.5 284.5q0 110 38.5 213.5t109.5 184.5t169 127t211 46zM569 844q-74 0 -127.5 -43.5t-79.5 -113.5t-26 -144
q0 -75 26.5 -143.5t79 -111t127.5 -42.5q76 0 128.5 42.5t79 111t26.5 143.5q0 74 -26 143.5t-79 113.5t-129 44zM352 1477l217 88l217 -88q48 -19 71.5 -48.5t23.5 -76.5q0 -50 -38 -90.5t-87 -40.5q-19 0 -107 36l-80 35l-80 -35q-86 -36 -106 -36q-49 0 -87 40.5
t-38 90.5q0 88 94 125z" />
    <glyph glyph-name="odieresis" unicode="&#xf6;" horiz-adv-x="1139" 
d="M569 1114q114 0 212.5 -46.5t169 -126.5t109 -182t38.5 -216q0 -115 -38.5 -218.5t-107 -181t-168 -123t-215.5 -45.5q-153 0 -274 76.5t-187.5 207t-66.5 284.5q0 110 38.5 213.5t109.5 184.5t169 127t211 46zM569 844q-74 0 -127.5 -43.5t-79.5 -113.5t-26 -144
q0 -75 26.5 -143.5t79 -111t127.5 -42.5q76 0 128.5 42.5t79 111t26.5 143.5q0 74 -26 143.5t-79 113.5t-129 44zM647 1382q0 60 43 104t105 44q63 0 105 -43t42 -105q0 -63 -42 -105t-105 -42q-62 0 -105 43t-43 104zM197 1382q0 62 42 105t105 43q62 0 105 -43t43 -105
q0 -63 -43 -105t-105 -42q-63 0 -105 42t-42 105z" />
    <glyph glyph-name="oe" unicode="&#x153;" horiz-adv-x="1858" 
d="M1073 643h469q-12 101 -73 163t-160 62q-95 0 -158.5 -63.5t-77.5 -161.5zM1708 446h-629q16 -104 94.5 -158.5t186.5 -54.5q65 0 108.5 19.5t117.5 59.5t106 40q47 0 83.5 -39t36.5 -88q0 -61 -73.5 -119.5t-188 -94.5t-219.5 -36q-126 0 -226.5 46t-164.5 124
q-64 -78 -159 -124t-212 -46q-153 0 -274 76.5t-187.5 207t-66.5 284.5q0 110 38.5 213.5t109.5 184.5t169 127t211 46q215 0 381 -166q59 74 150.5 120t202.5 46q138 0 262 -74t198 -198.5t74 -263.5q0 -132 -129 -132zM336 543q0 -75 26.5 -143.5t79 -111t127.5 -42.5
q76 0 128.5 42.5t79 111t26.5 143.5q0 74 -26 143.5t-79 113.5t-129 44q-74 0 -127.5 -43.5t-79.5 -113.5t-26 -144z" />
    <glyph glyph-name="ogonek" unicode="&#x2db;" horiz-adv-x="455" 
d="M250 0h141q-61 -30 -116.5 -98t-55.5 -133q0 -80 72 -80q12 0 36.5 7t43.5 7q43 0 43 -45q0 -30 -28 -53t-76 -37t-99 -14q-84 0 -136 46.5t-52 125.5q0 85 74 163.5t153 110.5z" />
    <glyph glyph-name="ograve" unicode="&#xf2;" horiz-adv-x="1139" 
d="M569 1114q114 0 212.5 -46.5t169 -126.5t109 -182t38.5 -216q0 -115 -38.5 -218.5t-107 -181t-168 -123t-215.5 -45.5q-153 0 -274 76.5t-187.5 207t-66.5 284.5q0 110 38.5 213.5t109.5 184.5t169 127t211 46zM569 844q-74 0 -127.5 -43.5t-79.5 -113.5t-26 -144
q0 -75 26.5 -143.5t79 -111t127.5 -42.5q76 0 128.5 42.5t79 111t26.5 143.5q0 74 -26 143.5t-79 113.5t-129 44zM506 1563l242 -99l16 -8q25 -13 41 -35t16 -47q0 -55 -32 -102t-76 -47q-21 0 -26.5 1t-16 5t-39.5 14l-230 90q-84 31 -84 121q0 43 33.5 85t77.5 42
q26 0 78 -20z" />
    <glyph glyph-name="one" unicode="1" horiz-adv-x="758" 
d="M311 147v1029h-121q-69 0 -104 41.5t-35 99.5q0 56 37.5 98.5t101.5 42.5h291q64 0 100.5 -40.5t36.5 -104.5v-1166q0 -76 -42.5 -117.5t-110.5 -41.5q-67 0 -110.5 42.5t-43.5 116.5z" />
    <glyph glyph-name="onehalf" unicode="&#xbd;" horiz-adv-x="1763" 
d="M332 152l678 1278q19 38 38.5 51.5t55.5 13.5q29 0 58 -15t46 -41.5t17 -58.5q0 -30 -17 -61l-688 -1288q-29 -41 -43.5 -54.5t-48.5 -13.5q-42 0 -79.5 34.5t-37.5 78.5q0 31 21 76zM1606 0h-465q-42 0 -69.5 21t-27.5 61q0 30 31 61q49 55 117 125t120 129t93 115
q47 62 47 113q0 37 -26 57t-68 20q-53 0 -76 -23.5t-39.5 -69.5t-33.5 -67.5t-60 -21.5q-47 0 -71.5 30t-24.5 85q0 49 38 108t110 101.5t165 42.5q80 0 148 -30t107.5 -87.5t39.5 -134.5q0 -61 -31 -123.5t-70 -111t-95.5 -108.5t-73.5 -83h202q38 0 67.5 -32.5t29.5 -76.5
q0 -100 -84 -100zM233 674v588h-69q-90 0 -90 106q0 47 24.5 74.5t65.5 27.5h190q42 0 65 -23t23 -63v-710q0 -38 -27.5 -64t-76.5 -26q-46 0 -75.5 25t-29.5 65z" />
    <glyph glyph-name="onequarter" unicode="&#xbc;" horiz-adv-x="1763" 
d="M332 152l678 1278q19 38 38.5 51.5t55.5 13.5q29 0 58 -15t46 -41.5t17 -58.5q0 -30 -17 -61l-688 -1288q-29 -41 -43.5 -54.5t-48.5 -13.5q-42 0 -79.5 34.5t-37.5 78.5q0 31 21 76zM233 674v588h-69q-90 0 -90 106q0 47 24.5 74.5t65.5 27.5h190q42 0 65 -23t23 -63
v-710q0 -38 -27.5 -64t-76.5 -26q-46 0 -75.5 25t-29.5 65zM973 315l297 500q23 39 55.5 55.5t89.5 16.5q69 0 115.5 -39.5t46.5 -118.5v-362h20q40 0 66.5 -24.5t26.5 -72.5t-26 -74t-67 -26h-20v-92q0 -90 -104 -90q-105 0 -105 90v92h-334q-40 0 -60 25.5t-20 58.5
q0 28 19 61zM1368 367v313h-4l-172 -313h176z" />
    <glyph glyph-name="onesuperior" unicode="&#xb9;" horiz-adv-x="492" 
d="M180 674v588h-69q-91 0 -91 106q0 47 24.5 74.5t66.5 27.5h190q43 0 65.5 -23.5t22.5 -62.5v-710q0 -38 -27.5 -64t-76.5 -26q-46 0 -75.5 25t-29.5 65z" />
    <glyph glyph-name="ordfeminine" unicode="&#xaa;" horiz-adv-x="764" 
d="M709 1372v-481q0 -90 -91 -90q-85 0 -92 80q-76 -80 -168 -80q-96 0 -171.5 43.5t-117.5 121t-42 175.5q0 94 42 173t115 124t160 45q56 0 104 -20t78 -60q7 80 92 80q53 0 72 -30.5t19 -80.5zM371 961q69 0 105 53.5t36 126.5q0 74 -36 128t-105 54q-71 0 -109.5 -54.5
t-38.5 -127.5q0 -72 39 -126t109 -54z" />
    <glyph glyph-name="ordmasculine" unicode="&#xba;" horiz-adv-x="739" 
d="M371 1483q96 0 175.5 -47.5t123 -125.5t43.5 -169q0 -93 -43 -170.5t-121.5 -123.5t-177.5 -46q-101 0 -179 45.5t-121.5 123.5t-43.5 171q0 89 43.5 168t123.5 126.5t177 47.5zM371 961q68 0 106.5 54.5t38.5 125.5q0 73 -36.5 127.5t-108.5 54.5q-71 0 -109.5 -55
t-38.5 -127q0 -70 39 -125t109 -55z" />
    <glyph glyph-name="oslash" unicode="&#xf8;" horiz-adv-x="1139" 
d="M354 430l351 365q-54 49 -136 49q-74 0 -127.5 -43.5t-79.5 -113.5t-26 -144q0 -60 18 -113zM31 94l108 113q-98 146 -98 336q0 110 38.5 213.5t109.5 184.5t169 127t211 46q186 0 326 -121l94 99q28 30 55 30q35 0 59.5 -24.5t24.5 -59.5t-20 -55l-107 -111
q97 -150 97 -329q0 -115 -38.5 -218.5t-107 -181t-168 -123t-215.5 -45.5q-188 0 -321 111l-103 -106q-23 -25 -51 -25q-33 0 -58.5 25.5t-25.5 58.5q0 36 21 55zM788 651l-346 -360q51 -45 127 -45t128.5 42.5t79 111t26.5 143.5q0 58 -15 108z" />
    <glyph glyph-name="otilde" unicode="&#xf5;" horiz-adv-x="1139" 
d="M569 1114q114 0 212.5 -46.5t169 -126.5t109 -182t38.5 -216q0 -115 -38.5 -218.5t-107 -181t-168 -123t-215.5 -45.5q-153 0 -274 76.5t-187.5 207t-66.5 284.5q0 110 38.5 213.5t109.5 184.5t169 127t211 46zM569 844q-74 0 -127.5 -43.5t-79.5 -113.5t-26 -144
q0 -75 26.5 -143.5t79 -111t127.5 -42.5q76 0 128.5 42.5t79 111t26.5 143.5q0 74 -26 143.5t-79 113.5t-129 44zM332 1239q-37 0 -70 34t-33 73q0 82 56.5 131t138.5 49q53 0 133.5 -25.5t95.5 -25.5q17 0 74 29.5t86 29.5q46 0 71 -33.5t25 -81.5q0 -73 -62.5 -125.5
t-137.5 -52.5q-32 0 -121 25.5t-111 25.5q-16 0 -28.5 -5.5t-36.5 -20.5t-40 -21t-40 -6z" />
    <glyph glyph-name="p" unicode="p" 
d="M84 -283v1221q0 73 40.5 118.5t106.5 45.5q118 0 148 -123q41 66 117 100.5t163 34.5q151 0 258.5 -83t162.5 -217t55 -284q0 -140 -60.5 -268.5t-172.5 -207.5t-253 -79q-70 0 -141 26.5t-129 76.5v-361q0 -46 -19 -84t-53 -58.5t-76 -20.5q-66 0 -106.5 44.5
t-40.5 118.5zM379 553q0 -119 59.5 -213t171.5 -94q72 0 125 44t79 111.5t26 141.5t-26 143t-78.5 113.5t-125.5 44.5q-75 0 -127.5 -41.5t-78 -107.5t-25.5 -142z" />
    <glyph glyph-name="paragraph" unicode="&#xb6;" horiz-adv-x="1270" 
d="M487 -311v1054q-148 0 -250 42t-154 121.5t-52 187.5q0 141 64 221t175 111.5t265 31.5h520q56 0 89.5 -33.5t33.5 -89.5v-1646q0 -56 -33.5 -89.5t-89.5 -33.5q-58 0 -90.5 33.5t-32.5 89.5v1585h-199v-1585q0 -56 -32.5 -89.5t-90.5 -33.5q-56 0 -89.5 33.5t-33.5 89.5
z" />
    <glyph glyph-name="parenleft" unicode="(" horiz-adv-x="494" 
d="M352 1483q53 0 92 -33t39 -86q0 -17 -16.5 -69.5t-22.5 -65.5q-52 -165 -79 -325t-27 -320q0 -159 23 -311.5t71 -295.5q51 -133 51 -161q0 -59 -36 -95t-95 -36q-63 0 -106 77q-52 91 -88.5 237t-57 306t-20.5 279q0 78 14 209.5t39 261t64.5 241.5t87.5 160
q23 27 67 27z" />
    <glyph glyph-name="parenright" unicode=")" horiz-adv-x="494" 
d="M141 -315q-51 0 -91 33.5t-40 84.5q0 31 39 136q53 161 80 323.5t27 321.5q0 158 -23 312.5t-72 293.5q-51 138 -51 162q0 59 36 95t95 36q62 0 107 -78q49 -85 87.5 -236.5t58.5 -308.5t20 -276q0 -78 -12.5 -201.5t-39 -261.5t-66 -249.5t-87.5 -160.5q-23 -26 -68 -26
z" />
    <glyph glyph-name="percent" unicode="%" horiz-adv-x="1479" 
d="M379 1030q49 0 77.5 35t28.5 86q0 52 -28.5 87.5t-77.5 35.5q-50 0 -78.5 -35.5t-28.5 -87.5q0 -51 28.5 -86t78.5 -35zM305 152l678 1278q21 39 39.5 52t54.5 13q30 0 58 -15t45.5 -41.5t17.5 -58.5q0 -30 -16 -61l-688 -1288q-29 -41 -43.5 -54.5t-49.5 -13.5
q-40 0 -78 34.5t-38 78.5q0 33 20 76zM379 821q-135 0 -225.5 98t-90.5 232q0 88 41 164.5t113.5 122t161.5 45.5q87 0 159.5 -45t114 -122t41.5 -165q0 -87 -41 -163.5t-114 -121.5t-160 -45zM1100 -25q-135 0 -225.5 98t-90.5 232q0 88 41 164.5t113.5 122t161.5 45.5
q87 0 159.5 -45t114 -122t41.5 -165q0 -87 -41 -163.5t-114 -121.5t-160 -45zM1100 184q49 0 77.5 35t28.5 86q0 52 -28.5 87.5t-77.5 35.5q-50 0 -78.5 -35.5t-28.5 -87.5q0 -51 28.5 -86t78.5 -35z" />
    <glyph glyph-name="period" unicode="." horiz-adv-x="549" 
d="M115 135q0 65 46.5 112.5t112.5 47.5t113 -47t47 -113t-47 -113t-113 -47t-112.5 47.5t-46.5 112.5z" />
    <glyph glyph-name="periodcentered" unicode="&#x2219;" horiz-adv-x="549" 
d="M274 735q66 0 113 -47t47 -113q0 -68 -46.5 -113.5t-113.5 -45.5q-65 0 -112 47t-47 112q0 67 46.5 113.5t112.5 46.5z" />
    <glyph glyph-name="perthousand" unicode="&#x2030;" horiz-adv-x="2200" 
d="M1821 -25q-88 0 -161 45t-114 121.5t-41 163.5q0 88 41.5 165t114 122t160.5 45q87 0 159.5 -45t114 -122t41.5 -165q0 -87 -41 -163.5t-114 -121.5t-160 -45zM1821 184q49 0 77.5 35t28.5 86q0 52 -28.5 87.5t-77.5 35.5q-50 0 -78.5 -35.5t-28.5 -87.5q0 -51 28.5 -86
t78.5 -35zM379 1030q49 0 77.5 35t28.5 86q0 52 -28.5 87.5t-77.5 35.5q-50 0 -78.5 -35.5t-28.5 -87.5q0 -51 28.5 -86t78.5 -35zM305 152l678 1278q21 39 39.5 52t54.5 13q30 0 58 -15t45.5 -41.5t17.5 -58.5q0 -30 -16 -61l-688 -1288q-29 -41 -43.5 -54.5t-49.5 -13.5
q-40 0 -78 34.5t-38 78.5q0 33 20 76zM379 821q-135 0 -225.5 98t-90.5 232q0 88 41 164.5t113.5 122t161.5 45.5q87 0 159.5 -45t114 -122t41.5 -165q0 -87 -41 -163.5t-114 -121.5t-160 -45zM1100 -25q-135 0 -225.5 98t-90.5 232q0 88 41 164.5t113.5 122t161.5 45.5
q87 0 159.5 -45t114 -122t41.5 -165q0 -87 -41 -163.5t-114 -121.5t-160 -45zM1100 184q49 0 77.5 35t28.5 86q0 52 -28.5 87.5t-77.5 35.5q-50 0 -78.5 -35.5t-28.5 -87.5q0 -51 28.5 -86t78.5 -35z" />
    <glyph glyph-name="plus" unicode="+" horiz-adv-x="1229" 
d="M492 641v297q0 56 32.5 89.5t89.5 33.5q58 0 90.5 -33.5t32.5 -89.5v-297h297q58 0 90.5 -33.5t32.5 -89.5t-32.5 -89.5t-90.5 -33.5h-297v-297q0 -54 -33.5 -88.5t-89.5 -34.5q-55 0 -88.5 34.5t-33.5 88.5v297h-297q-58 0 -90.5 33.5t-32.5 89.5t32.5 89.5t90.5 33.5
h297z" />
    <glyph glyph-name="plusminus" unicode="&#xb1;" horiz-adv-x="1229" 
d="M492 807v131q0 56 32.5 89.5t89.5 33.5q58 0 90.5 -33.5t32.5 -89.5v-131h297q58 0 90.5 -33.5t32.5 -89.5t-32.5 -89.5t-90.5 -33.5h-297v-131q0 -56 -32.5 -89.5t-90.5 -33.5q-57 0 -89.5 33.5t-32.5 89.5v131h-297q-58 0 -90.5 33.5t-32.5 89.5t32.5 89.5t90.5 33.5
h297zM195 246h839q58 0 90.5 -33.5t32.5 -89.5t-32.5 -89.5t-90.5 -33.5h-839q-58 0 -90.5 33.5t-32.5 89.5t32.5 89.5t90.5 33.5z" />
    <glyph glyph-name="q" unicode="q" 
d="M1092 938v-1221q0 -46 -19 -84t-53 -58.5t-76 -20.5q-66 0 -106.5 44.5t-40.5 118.5v361q-58 -50 -130 -76.5t-141 -26.5q-141 0 -252.5 79t-172 208t-60.5 268q0 150 54 284t162.5 217t258.5 83q56 0 111 -15.5t98.5 -45.5t71.5 -74q28 123 147 123q43 0 76.5 -20.5
t52.5 -58t19 -85.5zM797 553q0 119 -60.5 205t-171.5 86q-72 0 -124.5 -44.5t-78.5 -113.5t-26 -143q0 -51 15 -105t44 -97.5t72.5 -69t97.5 -25.5q75 0 128 45t78.5 116.5t25.5 145.5z" />
    <glyph glyph-name="question" unicode="?" horiz-adv-x="985" 
d="M301 557v205q0 49 35.5 66t130.5 42q78 23 121 58.5t43 115.5q0 67 -51 111.5t-119 44.5q-57 0 -99 -28t-84.5 -77.5t-73 -73.5t-73.5 -24q-55 0 -90 40.5t-35 107.5q0 76 43 140t113 108.5t150 67t149 22.5q133 0 244.5 -53t178 -153.5t66.5 -232.5q0 -163 -94 -267
t-260 -146v-74q0 -62 -41.5 -101.5t-105.5 -39.5q-67 0 -107.5 39.5t-40.5 101.5zM449 -25q-66 0 -113 47t-47 113t47 113t113 47q67 0 113 -47t46 -113t-46 -113t-113 -47z" />
    <glyph glyph-name="questiondown" unicode="&#xbf;" horiz-adv-x="985" 
d="M684 532v-204q0 -26 -13.5 -44t-33 -27.5t-62.5 -21.5t-57 -16q-77 -21 -120.5 -57t-43.5 -117q0 -44 24.5 -80t63 -56t82.5 -20q57 0 97 26.5t85.5 77.5t75 75t72.5 24q56 0 90.5 -40t34.5 -107q0 -75 -43 -140t-112.5 -108.5t-149 -66.5t-150.5 -23q-133 0 -245 53
t-178 153t-66 232q0 165 94.5 269t259.5 145v73q0 62 42 102t106 40q68 0 107.5 -39.5t39.5 -102.5zM537 1114q67 0 113 -47t46 -113t-46.5 -112.5t-112.5 -46.5q-65 0 -112.5 46.5t-47.5 112.5t47 113t113 47z" />
    <glyph glyph-name="quotedbl" unicode="&#x22;" horiz-adv-x="909" 
d="M518 1012v348q0 56 32.5 89.5t90.5 33.5t90.5 -33.5t32.5 -89.5v-348q0 -56 -32.5 -89.5t-90.5 -33.5t-90.5 33.5t-32.5 89.5zM145 1012v348q0 56 33.5 89.5t89.5 33.5q58 0 90.5 -33.5t32.5 -89.5v-348q0 -56 -32.5 -89.5t-90.5 -33.5q-56 0 -89.5 33.5t-33.5 89.5z" />
    <glyph glyph-name="quotedblbase" unicode="&#x201e;" horiz-adv-x="909" 
d="M864 102l-172 -307q-17 -33 -53 -51t-64 -18q-55 0 -97 40t-42 95q0 26 25 82l170 307q17 32 52.5 50.5t66.5 18.5q56 0 98.5 -40t42.5 -95q0 -26 -27 -82zM446 102l-172 -307q-17 -33 -53 -51t-63 -18q-56 0 -98 40t-42 95q0 26 25 82l170 307q19 33 54.5 51t64.5 18
q56 0 98.5 -40t42.5 -95q0 -26 -27 -82z" />
    <glyph glyph-name="quotedblleft" unicode="&#x201c;" horiz-adv-x="909" 
d="M864 1266l-172 -308q-17 -33 -53 -51t-64 -18q-55 0 -97 40t-42 95q0 26 25 82l170 307q17 31 54 50.5t65 19.5q56 0 98.5 -40.5t42.5 -94.5q0 -28 -27 -82zM446 1266l-172 -308q-17 -33 -53 -51t-63 -18q-56 0 -98 40t-42 95q0 26 25 82l170 307q19 32 56 51t63 19
q56 0 98.5 -40.5t42.5 -94.5q0 -28 -27 -82z" />
    <glyph glyph-name="quotedblright" unicode="&#x201d;" horiz-adv-x="909" 
d="M864 1266l-172 -308q-17 -33 -53 -51t-64 -18q-55 0 -97 40t-42 95q0 26 25 82l170 307q17 31 54 50.5t65 19.5q56 0 98.5 -40.5t42.5 -94.5q0 -28 -27 -82zM446 1266l-172 -308q-17 -33 -53 -51t-63 -18q-56 0 -98 40t-42 95q0 26 25 82l170 307q19 32 56 51t63 19
q56 0 98.5 -40.5t42.5 -94.5q0 -28 -27 -82z" />
    <glyph glyph-name="quoteleft" unicode="&#x2018;" horiz-adv-x="492" 
d="M446 1266l-172 -308q-17 -33 -53 -51t-63 -18q-56 0 -98 40t-42 95q0 26 25 82l170 307q19 32 56 51t63 19q56 0 98.5 -40.5t42.5 -94.5q0 -28 -27 -82z" />
    <glyph glyph-name="quoteright" unicode="&#x2019;" horiz-adv-x="492" 
d="M446 1266l-172 -308q-17 -33 -53 -51t-63 -18q-56 0 -98 40t-42 95q0 26 25 82l170 307q19 32 56 51t63 19q56 0 98.5 -40.5t42.5 -94.5q0 -28 -27 -82z" />
    <glyph glyph-name="quotesinglbase" unicode="&#x201a;" horiz-adv-x="492" 
d="M446 102l-172 -307q-17 -33 -53 -51t-63 -18q-56 0 -98 40t-42 95q0 26 25 82l170 307q19 33 54.5 51t64.5 18q56 0 98.5 -40t42.5 -95q0 -26 -27 -82z" />
    <glyph glyph-name="quotesingle" unicode="'" horiz-adv-x="492" 
d="M123 1012v348q0 56 32.5 89.5t90.5 33.5t90.5 -33.5t32.5 -89.5v-348q0 -56 -32.5 -89.5t-90.5 -33.5t-90.5 33.5t-32.5 89.5z" />
    <glyph glyph-name="r" unicode="r" horiz-adv-x="682" 
d="M80 152v802q0 70 45.5 109t105.5 39q144 0 144 -123h4q45 65 92 94t115 29q57 0 100 -41t43 -117q0 -44 -22.5 -67t-61.5 -39t-92 -37q-88 -40 -133 -79.5t-45 -117.5v-452q0 -48 -19 -85.5t-53 -58t-76 -20.5q-66 0 -106.5 45.5t-40.5 118.5z" />
    <glyph glyph-name="registered" unicode="&#xae;" horiz-adv-x="1638" 
d="M700 647v-241q0 -99 -92 -99q-51 0 -71.5 23.5t-20.5 75.5v632q0 40 20.5 63t73.5 23h232q140 0 222.5 -53.5t82.5 -185.5q0 -109 -52.5 -164.5t-152.5 -61.5l145 -237q13 -23 13 -43q0 -72 -96 -72q-32 0 -51.5 13.5t-31 31.5t-30.5 54l-129 241h-62zM700 795h154
q55 0 82 19t27 71q0 53 -27.5 72.5t-81.5 19.5h-154v-182zM66 729q0 205 101 378t274 274.5t378 101.5q153 0 291.5 -58t242.5 -162t162 -242.5t58 -291.5q0 -205 -101.5 -378t-274.5 -274.5t-378 -101.5t-378 101.5t-274 274.5t-101 378zM250 729q0 -115 44 -219.5
t122.5 -183t183 -122.5t219.5 -44q116 0 222 45t183 122t121 182.5t44 219.5q0 115 -44.5 221t-121 182.5t-183 121t-221.5 44.5q-114 0 -219.5 -44t-182.5 -121t-122 -182.5t-45 -221.5z" />
    <glyph glyph-name="ring" unicode="&#x2da;" horiz-adv-x="455" 
d="M25 1389q0 54 27 101t74 74t101 27q56 0 102.5 -27t73.5 -74t27 -101q0 -85 -60 -144t-143 -59q-82 0 -142 60t-60 143zM135 1389q0 -39 27 -66t65 -27q39 0 65.5 27.5t26.5 65.5q0 39 -26.5 65.5t-65.5 26.5q-38 0 -65 -26t-27 -66z" />
    <glyph glyph-name="s" unicode="s" horiz-adv-x="872" 
d="M825 901q0 -51 -34.5 -91t-85.5 -40q-23 0 -87.5 29t-99.5 43t-78 14t-71.5 -21t-28.5 -61q0 -43 88 -81.5t186.5 -79t168 -108.5t69.5 -183q0 -99 -52 -177.5t-148.5 -124t-219.5 -45.5q-87 0 -183.5 30t-162.5 83t-66 115q0 40 35.5 85.5t91.5 45.5q40 0 70 -12.5
t75.5 -38.5t79 -38t81.5 -12q65 0 90.5 20.5t25.5 63.5t-85 80t-187 79t-171 111t-69 183q0 101 51 179t142 121.5t207 43.5q81 0 166 -24t143.5 -73t58.5 -116z" />
    <glyph glyph-name="scaron" unicode="&#x161;" horiz-adv-x="872" 
d="M825 901q0 -51 -34.5 -91t-85.5 -40q-23 0 -87.5 29t-99.5 43t-78 14t-71.5 -21t-28.5 -61q0 -43 88 -81.5t186.5 -79t168 -108.5t69.5 -183q0 -99 -52 -177.5t-148.5 -124t-219.5 -45.5q-87 0 -183.5 30t-162.5 83t-66 115q0 40 35.5 85.5t91.5 45.5q40 0 70 -12.5
t75.5 -38.5t79 -38t81.5 -12q65 0 90.5 20.5t25.5 63.5t-85 80t-187 79t-171 111t-69 183q0 101 51 179t142 121.5t207 43.5q81 0 166 -24t143.5 -73t58.5 -116zM436 1212l-217 88q-94 37 -94 125q0 50 38 90.5t87 40.5q20 0 106 -36l80 -35l80 35q88 36 107 36
q49 0 87 -40.5t38 -90.5q0 -46 -23.5 -75t-71.5 -50z" />
    <glyph glyph-name="section" unicode="&#xa7;" 
d="M573 1483q78 0 160.5 -15.5t162.5 -51t131.5 -95t51.5 -141.5q0 -56 -41 -101t-96 -45q-41 0 -71.5 21t-78 65.5t-88.5 68t-94 23.5q-61 0 -106 -40t-45 -101q0 -52 42.5 -81.5t148 -69t149.5 -62.5q159 -66 247.5 -142t88.5 -206q0 -126 -52 -206t-165 -159
q45 -56 66.5 -105t21.5 -110q0 -87 -34.5 -156.5t-95 -118.5t-140.5 -75t-163 -26q-120 0 -237.5 43.5t-193.5 115.5t-76 150q0 65 48 109t115 44q37 0 61 -20.5t69.5 -71t84 -75.5t93.5 -25t102 32t47 85q0 41 -26 72.5t-71 55t-102.5 45.5t-121.5 46q-151 60 -237.5 142.5
t-86.5 227.5q0 116 43.5 195.5t138.5 157.5q-51 57 -73.5 103.5t-22.5 111.5q0 117 60 205t161.5 134t224.5 46zM453 428l258 -109q51 31 77.5 64.5t26.5 85.5q0 96 -151 154l-226 88q-90 -68 -90 -146q0 -48 26 -79.5t79 -57.5z" />
    <glyph glyph-name="semicolon" unicode=";" horiz-adv-x="549" 
d="M293 319q56 0 98.5 -40t42.5 -95q0 -23 -26 -82l-172 -307q-17 -33 -53 -51t-64 -18q-57 0 -98 39.5t-41 95.5q0 28 24 82l170 307q19 33 54.5 51t64.5 18zM115 793q0 66 46.5 112.5t112.5 46.5t113 -46t47 -113q0 -66 -47 -113t-113 -47t-112.5 47.5t-46.5 112.5z" />
    <glyph glyph-name="seven" unicode="7" horiz-adv-x="1102" 
d="M195 205l512 971h-525q-76 0 -113.5 41t-37.5 100q0 60 36 100.5t115 40.5h742q72 0 109.5 -49t37.5 -98q0 -28 -12.5 -59.5t-34.5 -75.5l-508 -1033q-34 -68 -53.5 -97t-47.5 -43.5t-71 -14.5q-77 0 -123.5 46.5t-46.5 98.5q0 31 21 72z" />
    <glyph glyph-name="six" unicode="6" 
d="M588 -25q-153 0 -270.5 69.5t-180.5 185.5t-63 253q0 143 81.5 322t204 344.5t234.5 269.5q14 15 65 49q23 15 62 15q28 0 62.5 -22t58.5 -58t24 -70q0 -31 -43 -84q-31 -38 -137.5 -156t-144.5 -171l4 -4q55 24 129 24q92 0 170.5 -37.5t135.5 -100.5t89.5 -146
t32.5 -175q0 -133 -66 -250t-184.5 -187.5t-263.5 -70.5zM588 696q-57 0 -101.5 -28t-69 -77.5t-24.5 -107.5q0 -89 53.5 -151t141.5 -62q86 0 140 61.5t54 151.5q0 56 -22 104.5t-65 78.5t-107 30z" />
    <glyph glyph-name="slash" unicode="/" horiz-adv-x="834" 
d="M35 145l547 1262q30 76 114 76q51 0 86 -32.5t35 -80.5q0 -15 -18 -57l-545 -1262q-35 -76 -115 -76q-49 0 -86 33t-37 80q0 13 19 57z" />
    <glyph glyph-name="space" unicode=" " horiz-adv-x="549" 
 />
    <glyph glyph-name="sterling" unicode="&#xa3;" horiz-adv-x="1251" 
d="M559 868h311q42 0 76 -17t53 -49t19 -75t-19 -75t-53 -49t-76 -17h-264q0 -159 -104 -303h569q42 0 76.5 -17.5t53 -49.5t18.5 -75t-19 -75t-53 -49t-76 -17h-803q-76 0 -117.5 43.5t-41.5 116.5q0 26 26 62t65 91t63 121t24 152h-107q-66 0 -106.5 38t-40.5 103
t40.5 103t106.5 38h43q-19 39 -36 107t-17 110q0 118 69.5 209t188 140t258.5 49t260 -46.5t189 -127.5t69 -181q0 -70 -44.5 -112.5t-115.5 -42.5q-44 0 -69 22t-70 78.5t-89.5 85.5t-117.5 29q-81 0 -138.5 -42.5t-57.5 -115.5q0 -65 26 -108z" />
    <glyph glyph-name="t" unicode="t" horiz-adv-x="606" 
d="M156 152v679h-66q-58 0 -93.5 35.5t-35.5 94.5q0 55 37 92t92 37h66v176q0 73 40.5 118.5t106.5 45.5q43 0 76.5 -20.5t52.5 -58t19 -85.5v-176h84q61 0 101 -31.5t40 -97.5t-39.5 -98t-101.5 -32h-84v-679q0 -48 -19 -85.5t-53 -58t-76 -20.5q-66 0 -106.5 45.5
t-40.5 118.5z" />
    <glyph glyph-name="thorn" unicode="&#xfe;" 
d="M84 -283v1696q0 73 40.5 118.5t106.5 45.5q43 0 76.5 -20.5t52.5 -58t19 -85.5v-434h4q38 66 111 100.5t155 34.5q110 0 199 -46t154 -125.5t99 -179t34 -204.5q0 -141 -57 -276.5t-165.5 -221.5t-253.5 -86q-162 0 -280 103v-361q0 -46 -19 -84t-53 -58.5t-76 -20.5
q-66 0 -106.5 44.5t-40.5 118.5zM379 537q0 -117 60.5 -204t170.5 -87q108 0 169 92.5t61 208.5q0 51 -15 105.5t-43.5 97t-72.5 68.5t-99 26q-112 0 -171.5 -94t-59.5 -213z" />
    <glyph glyph-name="three" unicode="3" 
d="M555 1483q137 0 236.5 -58t149.5 -146t50 -171q0 -98 -42 -179t-126 -134q114 -53 182 -150t68 -217q0 -121 -68.5 -225.5t-187.5 -166t-260 -61.5q-143 0 -255 60.5t-174 151t-62 173.5q0 58 49 98t108 40q55 0 115.5 -87.5t92 -120t130.5 -32.5q53 0 97 24.5t70 68.5
t26 98q0 95 -45 129.5t-133.5 47.5t-129 36.5t-40.5 103.5q0 72 36.5 99t108.5 46t108.5 48t36.5 104q0 59 -40 98t-107 39q-66 0 -103 -26t-72 -77t-60.5 -74.5t-71.5 -23.5q-60 0 -96.5 45.5t-36.5 106.5q0 59 37 118.5t101 108t145.5 77t162.5 28.5z" />
    <glyph glyph-name="threequarters" unicode="&#xbe;" horiz-adv-x="1763" 
d="M487 152l678 1278q21 40 39.5 52.5t55.5 12.5q48 0 84 -33.5t36 -81.5q0 -30 -16 -61l-688 -1288q-29 -41 -43.5 -54.5t-48.5 -13.5q-41 0 -79 34.5t-38 78.5q0 33 20 76zM367 1483q74 0 139.5 -27.5t106 -78.5t40.5 -117q0 -121 -112 -189q73 -31 118.5 -90t45.5 -131
q0 -128 -102 -197t-236 -69q-71 0 -145.5 28t-124.5 80.5t-50 118.5q0 33 33 57.5t70 24.5q29 0 45 -14.5t41 -46.5t54 -48t77 -16q54 0 91.5 27t37.5 67q0 53 -31 75.5t-82 29.5q-61 11 -88 25t-27 61q0 43 24.5 59.5t69.5 26.5q48 12 71.5 29.5t23.5 62.5q0 30 -23 48.5
t-67 18.5q-37 0 -60 -13.5t-48.5 -39t-46.5 -38.5t-50 -13q-39 0 -62.5 27.5t-23.5 62.5q0 56 48.5 102t117.5 71.5t125 25.5zM999 315l297 500q25 39 57 55.5t89 16.5q69 0 115.5 -39.5t46.5 -118.5v-362h20q41 0 66.5 -24.5t25.5 -72.5t-25.5 -74t-66.5 -26h-20v-92
q0 -90 -105 -90q-104 0 -104 90v92h-334q-42 0 -61 25.5t-19 58.5q0 29 18 61zM1395 367v313h-4l-172 -313h176z" />
    <glyph glyph-name="threesuperior" unicode="&#xb3;" horiz-adv-x="764" 
d="M373 1483q74 0 139.5 -27.5t106 -78.5t40.5 -117q0 -121 -112 -189q73 -31 118.5 -90t45.5 -131q0 -128 -101.5 -197t-236.5 -69q-70 0 -145 28t-125 80.5t-50 118.5q0 33 33.5 57.5t69.5 24.5q29 0 45 -14.5t41 -46.5t54 -48t77 -16q54 0 91.5 27t37.5 67q0 53 -31 75.5
t-82 29.5q-61 11 -88 25t-27 61q0 23 8 38.5t22 24.5t30 14.5t35 8.5q46 12 70 29.5t24 62.5q0 30 -23 48.5t-67 18.5q-37 0 -60 -13.5t-48.5 -39t-46.5 -38.5t-50 -13q-39 0 -62.5 27.5t-23.5 62.5q0 56 48.5 102t117.5 71.5t125 25.5z" />
    <glyph glyph-name="tilde" unicode="&#x2dc;" horiz-adv-x="455" 
d="M-10 1239q-37 0 -70 34t-33 73q0 82 56.5 131t138.5 49q53 0 133.5 -25.5t95.5 -25.5q17 0 74 29.5t86 29.5q46 0 71 -33.5t25 -81.5q0 -73 -62.5 -125.5t-137.5 -52.5q-32 0 -121 25.5t-111 25.5q-16 0 -28.5 -5.5t-36.5 -20.5t-40 -21t-40 -6z" />
    <glyph glyph-name="trademark" unicode="&#x2122;" horiz-adv-x="2048" 
d="M340 737v537h-162q-40 0 -66 24.5t-26 67.5q0 45 26 68.5t66 23.5h570q41 0 66.5 -23.5t25.5 -68.5q0 -43 -25.5 -67.5t-66.5 -24.5h-162v-537q0 -54 -33.5 -88.5t-89.5 -34.5t-89.5 34.5t-33.5 88.5zM958 737v606q0 127 175 127q65 0 106.5 -24.5t75.5 -102.5l145 -372
l146 372q35 79 75.5 103t106.5 24q174 0 174 -127v-606q0 -59 -24.5 -91t-86.5 -32q-60 0 -85 32t-25 91v426h-4l-148 -426q-23 -65 -48 -94t-81 -29q-39 0 -63.5 15.5t-38 41t-27.5 66.5l-147 426h-4v-426q0 -59 -24.5 -91t-86.5 -32q-61 0 -86 32t-25 91z" />
    <glyph glyph-name="two" unicode="2" 
d="M549 270h375q72 0 115.5 -33.5t43.5 -101.5q0 -67 -41.5 -101t-105.5 -34h-684q-72 0 -116 34t-44 101q0 46 47 105q58 69 125 144t137 154t133 158.5t115 155.5q72 103 72 190q0 64 -43 111t-105 47q-77 0 -113 -42.5t-61 -125t-52 -123.5t-93 -41q-69 0 -109.5 44
t-40.5 106q0 126 67 232.5t179 169.5t236 63q127 0 230.5 -52.5t163.5 -150t60 -223.5q0 -98 -47.5 -202.5t-119.5 -199.5t-175 -211t-149 -174z" />
    <glyph glyph-name="twosuperior" unicode="&#xb2;" horiz-adv-x="764" 
d="M406 805h208q91 0 91 -105q0 -104 -91 -104h-458q-42 0 -69.5 21t-27.5 59q0 30 31 61q49 55 117 125t120 129t93 115q47 65 47 113q0 37 -26.5 58t-67.5 21q-54 0 -76.5 -24t-38.5 -70t-33.5 -68t-60.5 -22q-47 0 -71.5 30t-24.5 85q0 49 38 108.5t109.5 102.5t165.5 43
q81 0 148.5 -31t107 -88.5t39.5 -134.5q0 -61 -31 -123.5t-70 -110t-97.5 -110.5t-71.5 -80z" />
    <glyph glyph-name="u" unicode="u" horiz-adv-x="1139" 
d="M84 406v532q0 73 40.5 118.5t106.5 45.5q43 0 76.5 -20.5t52.5 -58t19 -85.5v-526q0 -87 56.5 -139t133.5 -52q52 0 95 22.5t69.5 65.5t26.5 103v526q0 73 40.5 118.5t106.5 45.5q43 0 76.5 -20.5t52.5 -58t19 -85.5v-532q0 -131 -56.5 -228.5t-167 -150t-262.5 -52.5
q-231 0 -358 116t-127 315z" />
    <glyph glyph-name="uacute" unicode="&#xfa;" horiz-adv-x="1139" 
d="M84 406v532q0 73 40.5 118.5t106.5 45.5q43 0 76.5 -20.5t52.5 -58t19 -85.5v-526q0 -87 56.5 -139t133.5 -52q52 0 95 22.5t69.5 65.5t26.5 103v526q0 73 40.5 118.5t106.5 45.5q43 0 76.5 -20.5t52.5 -58t19 -85.5v-532q0 -131 -56.5 -228.5t-167 -150t-262.5 -52.5
q-231 0 -358 116t-127 315zM391 1464l242 99q52 20 78 20q44 0 77 -41.5t33 -85.5q0 -91 -84 -121l-229 -90l-37.5 -13.5t-18 -5.5t-26.5 -1q-44 0 -76.5 46.5t-32.5 102.5q0 52 58 82z" />
    <glyph glyph-name="ucircumflex" unicode="&#xfb;" horiz-adv-x="1139" 
d="M84 406v532q0 73 40.5 118.5t106.5 45.5q43 0 76.5 -20.5t52.5 -58t19 -85.5v-526q0 -87 56.5 -139t133.5 -52q52 0 95 22.5t69.5 65.5t26.5 103v526q0 73 40.5 118.5t106.5 45.5q43 0 76.5 -20.5t52.5 -58t19 -85.5v-532q0 -131 -56.5 -228.5t-167 -150t-262.5 -52.5
q-231 0 -358 116t-127 315zM352 1477l217 88l217 -88q48 -19 71.5 -48.5t23.5 -76.5q0 -50 -38 -90.5t-87 -40.5q-19 0 -107 36l-80 35l-80 -35q-86 -36 -106 -36q-49 0 -87 40.5t-38 90.5q0 88 94 125z" />
    <glyph glyph-name="udieresis" unicode="&#xfc;" horiz-adv-x="1139" 
d="M84 406v532q0 73 40.5 118.5t106.5 45.5q43 0 76.5 -20.5t52.5 -58t19 -85.5v-526q0 -87 56.5 -139t133.5 -52q52 0 95 22.5t69.5 65.5t26.5 103v526q0 73 40.5 118.5t106.5 45.5q43 0 76.5 -20.5t52.5 -58t19 -85.5v-532q0 -131 -56.5 -228.5t-167 -150t-262.5 -52.5
q-231 0 -358 116t-127 315zM647 1382q0 60 43 104t105 44q63 0 105 -43t42 -105q0 -63 -42 -105t-105 -42q-62 0 -105 43t-43 104zM197 1382q0 62 42 105t105 43q62 0 105 -43t43 -105q0 -63 -43 -105t-105 -42q-63 0 -105 42t-42 105z" />
    <glyph glyph-name="ugrave" unicode="&#xf9;" horiz-adv-x="1139" 
d="M84 406v532q0 73 40.5 118.5t106.5 45.5q43 0 76.5 -20.5t52.5 -58t19 -85.5v-526q0 -87 56.5 -139t133.5 -52q52 0 95 22.5t69.5 65.5t26.5 103v526q0 73 40.5 118.5t106.5 45.5q43 0 76.5 -20.5t52.5 -58t19 -85.5v-532q0 -131 -56.5 -228.5t-167 -150t-262.5 -52.5
q-231 0 -358 116t-127 315zM506 1563l242 -99l16 -8q25 -13 41 -35t16 -47q0 -55 -32 -102t-76 -47q-21 0 -26.5 1t-16 5t-39.5 14l-230 90q-84 31 -84 121q0 43 33.5 85t77.5 42q26 0 78 -20z" />
    <glyph glyph-name="underscore" unicode="_" horiz-adv-x="1024" 
d="M1024 -256h-1024q-24 0 -41.5 14t-17.5 37t16.5 37t42.5 14h1024q26 0 42.5 -13.5t16.5 -37.5t-17.5 -37.5t-41.5 -13.5z" />
    <glyph glyph-name="v" unicode="v" horiz-adv-x="946" 
d="M313 111l-297 761q-18 48 -18 86q0 68 45 106t109 38q96 0 131 -105l188 -581h4l189 581q33 105 131 105q64 0 108.5 -37.5t44.5 -106.5q0 -38 -18 -86l-297 -761q-24 -64 -57.5 -93.5t-102.5 -29.5t-101.5 29t-58.5 94z" />
    <glyph glyph-name="w" unicode="w" horiz-adv-x="1593" 
d="M295 137l-250 707q-31 91 -31 139q0 50 41.5 84.5t106.5 34.5q52 0 89.5 -32t49.5 -85l170 -563h4l172 551q19 63 53.5 96t96.5 33q63 0 97.5 -33t51.5 -96l172 -551h4l170 563q14 53 50.5 85t89.5 32q42 0 76 -17t52.5 -50.5t18.5 -76.5q0 -23 -29 -110l-252 -711
q-52 -149 -178 -149q-127 0 -170 137l-151 475h-4l-152 -475q-43 -137 -170 -137q-68 0 -110 39t-68 110z" />
    <glyph glyph-name="x" unicode="x" horiz-adv-x="1024" 
d="M41 231l299 340l-250 281q-45 54 -45 106q0 58 46.5 101t105.5 43t108 -58l207 -258l207 258q49 58 108 58t105.5 -43.5t46.5 -100.5q0 -52 -45 -106l-250 -281l299 -340q18 -18 29.5 -45t11.5 -55q0 -64 -40.5 -103.5t-104.5 -39.5q-45 0 -69.5 15t-53.5 50l-244 299
l-244 -299q-29 -35 -53.5 -50t-69.5 -15q-64 0 -104.5 39.5t-40.5 103.5q0 24 11 52t30 48z" />
    <glyph glyph-name="y" unicode="y" horiz-adv-x="985" 
d="M336 86l-326 813q-14 40 -14 76q0 53 44.5 90t94.5 37q53 0 91.5 -27.5t56.5 -77.5l202 -555l217 555q20 50 57.5 77.5t90.5 27.5q50 0 94.5 -36.5t44.5 -90.5q0 -44 -14 -76l-494 -1229q-46 -116 -139 -116q-70 0 -112 38t-42 89q0 35 19 86z" />
    <glyph glyph-name="yacute" unicode="&#xfd;" horiz-adv-x="985" 
d="M336 86l-326 813q-14 40 -14 76q0 53 44.5 90t94.5 37q53 0 91.5 -27.5t56.5 -77.5l202 -555l217 555q20 50 57.5 77.5t90.5 27.5q50 0 94.5 -36.5t44.5 -90.5q0 -44 -14 -76l-494 -1229q-46 -116 -139 -116q-70 0 -112 38t-42 89q0 35 19 86zM315 1464l242 99
q52 20 78 20q44 0 77 -41.5t33 -85.5q0 -91 -84 -121l-229 -90l-37.5 -13.5t-18 -5.5t-26.5 -1q-44 0 -76.5 46.5t-32.5 102.5q0 52 58 82z" />
    <glyph glyph-name="ydieresis" unicode="&#xff;" horiz-adv-x="985" 
d="M336 86l-326 813q-14 40 -14 76q0 53 44.5 90t94.5 37q53 0 91.5 -27.5t56.5 -77.5l202 -555l217 555q20 50 57.5 77.5t90.5 27.5q50 0 94.5 -36.5t44.5 -90.5q0 -44 -14 -76l-494 -1229q-46 -116 -139 -116q-70 0 -112 38t-42 89q0 35 19 86zM571 1382q0 60 43 104
t105 44q63 0 105 -43t42 -105q0 -63 -42 -105t-105 -42q-62 0 -105 43t-43 104zM121 1382q0 62 42 105t105 43q62 0 105 -43t43 -105q0 -63 -43 -105t-105 -42q-63 0 -105 42t-42 105z" />
    <glyph glyph-name="yen" unicode="&#xa5;" 
d="M434 137v248h-291q-39 0 -68.5 24.5t-29.5 61.5t29.5 61.5t68.5 24.5h291v139h-291q-39 0 -68.5 24.5t-29.5 61.5q0 38 29 62t69 24h166l-260 361q-29 42 -29 92q0 61 42 105t106 44q38 0 73.5 -16.5t53.5 -44.5l293 -428l293 428q18 28 53.5 44.5t73.5 16.5
q64 0 105.5 -43.5t41.5 -105.5q0 -52 -29 -92l-260 -361h166q40 0 69 -24t29 -62q0 -37 -29.5 -61.5t-68.5 -24.5h-291v-139h291q39 0 68.5 -24.5t29.5 -61.5t-29.5 -61.5t-68.5 -24.5h-291v-248q0 -62 -38 -105.5t-115 -43.5q-78 0 -116 43.5t-38 105.5z" />
    <glyph glyph-name="z" unicode="z" horiz-adv-x="985" 
d="M49 180l463 651h-342q-57 0 -95 35.5t-38 94.5t38 94t95 35h670q32 0 64 -20.5t32 -72.5q0 -29 -7 -47t-24 -41l-465 -651h389q58 0 96 -35t38 -94t-38 -94t-96 -35h-686q-52 0 -86 26.5t-34 73.5q0 38 26 80z" />
    <glyph glyph-name="zcaron" unicode="&#x17e;" horiz-adv-x="985" 
d="M49 180l463 651h-342q-57 0 -95 35.5t-38 94.5t38 94t95 35h670q32 0 64 -20.5t32 -72.5q0 -29 -7 -47t-24 -41l-465 -651h389q58 0 96 -35t38 -94t-38 -94t-96 -35h-686q-52 0 -86 26.5t-34 73.5q0 38 26 80zM493 1212l-217 88q-94 37 -94 125q0 50 38 90.5t87 40.5
q20 0 106 -36l80 -35l80 35q88 36 107 36q49 0 87 -40.5t38 -90.5q0 -46 -23.5 -75t-71.5 -50z" />
    <glyph glyph-name="zero" unicode="0" 
d="M588 254q95 0 144.5 81t64 187t14.5 207q0 187 -43.5 331t-179.5 144t-179.5 -146t-43.5 -329q0 -177 44 -326t179 -149zM588 -25q-194 0 -316 112.5t-174.5 284.5t-52.5 357t52.5 357t174.5 284.5t316 112.5q149 0 254 -67t168 -177t91.5 -242.5t28.5 -267.5
q0 -133 -28.5 -265t-91.5 -243t-168 -178.5t-254 -67.5z" />
  </font>
</defs>
</svg>
